<svg id="Layer_1" data-name="Layer 1" xmlns="http://www.w3.org/2000/svg" width="626" height="548.7056" viewBox="0 0 626 548.7056"><defs><style>.cls-1{fill:#e7f3fe;}.cls-2{fill:#f19981;}.cls-3{fill:#00a9c1;}.cls-4{fill:#1c6078;}.cls-5{fill:#2c84a4;}.cls-6{fill:#e59943;}.cls-7{fill:#7ec095;}.cls-8{fill:#f29240;}.cls-9{fill:#e53e33;}.cls-10{fill:#00a073;}.cls-11{fill:#5aabd0;}.cls-12{fill:#e9b057;}.cls-13{fill:#e38236;}.cls-14{fill:#9fd8f5;}.cls-15{fill:#b9732a;}.cls-16{fill:#ec762c;}.cls-17{fill:#69bca3;}.cls-18{fill:#e95d51;}.cls-19{fill:#ec7454;}.cls-20{fill:#6ebfae;}.cls-21{fill:#fff;}.cls-22{fill:#ed7e66;}.cls-23{fill:#67340b;}.cls-24{fill:#dceffc;}.cls-25{fill:#007482;}.cls-26{fill:#0098ad;}.cls-27{fill:#4f7077;}.cls-28{fill:#e1f0fc;}.cls-29{fill:#804113;}.cls-30{fill:#eb6c60;}.cls-31{fill:#f7c2a3;}.cls-32{fill:#6fb4d7;}.cls-33{fill:#dbebf7;}.cls-34{fill:#a9d6f2;}.cls-35{fill:#fcf8f9;}.cls-36{fill:#cbd7df;stroke:#00767e;stroke-linecap:round;stroke-linejoin:round;}.cls-37{fill:#f4a881;}.cls-38{fill:#994d1b;}.cls-39{fill:#e4f3fc;}.cls-40{fill:#ad5248;}.cls-41{fill:#b5dcf3;}</style></defs><title>home</title><path class="cls-1" d="M169.0965,545.2821S19.5076,444.9389,121.7393,337.3714s239.0418-217.543,330.7494-174.9979,83.4593,96.3293,184.1881,174.1951,77.4253,139.6777,59.3844,170.9845-21.0474,39.3345-21.0474,39.3345Z" transform="translate(-86 -153)"/><path class="cls-2" d="M406.8814,409.482s-5.2919-5.0713-9.9223-4.8509-.22,9.9222,1.1025,10.3632,6.8353,3.528,7.7173,2.2049S406.8814,409.482,406.8814,409.482Z" transform="translate(-86 -153)"/><path class="cls-3" d="M467.958,394.0475c-5.5124.4409-12.4371,4.1334-14.9936,6.8352s-15.655,17.3087-19.1829,18.6318-23.6478-10.8594-26.2938-11.08-6.56,8.3235-7.2212,10.9695,29.8706,18.1043,35.6035,19.2068,15.6061-5.2055,15.6061-5.2055,6.78,18.3561-4.6854,48.6188c-1.2885,3.4005,69.2349,4.9611,69.0143,4.3s-.3307-70.4476-6.2841-78.0547c-4.5008-5.751-19.9546-14.0013-19.9546-14.0013l-12.5681-1.9844Z" transform="translate(-86 -153)"/><path class="cls-2" d="M471.9269,379.2745s.6614,9.2607-3.9689,14.773c0,0,1.5434,8.1583,10.1427,7.2762s11.4656-7.0558,11.4656-7.0558-3.7484-13.6705-4.1894-19.1828S472.7036,377.2357,471.9269,379.2745Z" transform="translate(-86 -153)"/><path class="cls-4" d="M393.1281,430.4472l-23.1573-68.4325a3.68,3.68,0,0,1,2.1073-4.6515l4.5691-1.65a3.3523,3.3523,0,0,1,4.2863,2.1739l23.9719,69.1123a3.6393,3.6393,0,0,1-2.6236,4.82l-5.3838.97A3.383,3.383,0,0,1,393.1281,430.4472Z" transform="translate(-86 -153)"/><path class="cls-5" d="M372.2639,433.2953V410.5845c0-6.6148,10.8042-7.2763,13.8911-2.205s9.4812,24.9158,9.4812,24.9158Z" transform="translate(-86 -153)"/><path class="cls-6" d="M520.6457,486.3061a9.0314,9.0314,0,0,1-7.2763-13.56c3.6382-6.6149,16.2063-11.2452,41.6733-10.749s38.8619,3.3074,41.8386,11.4105-1.4884,12.0719-7.2764,13.395S527.922,486.4716,520.6457,486.3061Z" transform="translate(-86 -153)"/><path class="cls-7" d="M491.7445,449.5059a4.024,4.024,0,0,1,2.1319-4.5953,1.428,1.428,0,0,1,1.2856-.0687,1.2449,1.2449,0,0,1,.4471.5041c.7819,1.4621-.2031,3.1864-.6145,4.7925a2.2856,2.2856,0,0,1,2.2442-1.4387c4.0976.3022.9908,4.8173-.5766,5.9942-1.9464,1.4613-4.272,2.2308-6.4759.8361-2.01-1.2718-3.1821-3.9189-3.5266-6.1937C485.95,444.6546,490.3317,446.9652,491.7445,449.5059Z" transform="translate(-86 -153)"/><path class="cls-8" d="M476.3123,466.865a83.7679,83.7679,0,0,0-3.83,16.7918c-.2148,1.44-.3563,3.1038.6433,4.163a3.2783,3.2783,0,0,0,3.3084.6676,8.8422,8.8422,0,0,0,2.9973-1.8657,70.0892,70.0892,0,0,0,14.8814-17.44c2.109-3.5043,3.9283-7.89,2.1-11.5489a10.3315,10.3315,0,0,0-4.0158-3.9645c-3.639-2.2319-7.2163-2.0718-9.6994,1.414A50.49,50.49,0,0,0,476.3123,466.865Z" transform="translate(-86 -153)"/><path class="cls-7" d="M503.7443,469.9037a4.0029,4.0029,0,0,1,4.2308-2.7373,1.421,1.421,0,0,1,1.1186.6238,1.239,1.239,0,0,1,.1089.6614c-.1171,1.6451-1.86,2.5741-3.0584,3.7078a2.2734,2.2734,0,0,1,2.6517-.021c3.2885,2.4269-1.72,4.58-3.6634,4.739-2.413.198-4.7783-.3874-5.8939-2.73-1.0173-2.1363-.6-4.9854.316-7.0828C501.44,462.7486,503.9023,467.0162,503.7443,469.9037Z" transform="translate(-86 -153)"/><path class="cls-7" d="M426.516,442.7981a9.6585,9.6585,0,0,1,6.296.5836,7.8038,7.8038,0,0,1,2.0731-4.9193c.1939-.2075.49-.4186.7355-.277a.6562.6562,0,0,1,.2494.4256,13.304,13.304,0,0,1,.3688,4.9746,5.0675,5.0675,0,0,1,4.9488,2.3279c-2.009,1.2648-6.62,2.7406-8.9329,1.7282-.8814-.3859-1.5251-1.3319-2.3-1.8887a16.7412,16.7412,0,0,0-4.3342-1.9865C425.5857,443.22,425.9477,442.94,426.516,442.7981Z" transform="translate(-86 -153)"/><path class="cls-9" d="M419.9942,451.1646a12.0456,12.0456,0,0,0,19.3721,13.5182,10.3505,10.3505,0,0,0,3.1482-5.8543,14.8065,14.8065,0,0,0-1.0609-7.0316,8.3162,8.3162,0,0,0-2.2564-3.7788,7.8988,7.8988,0,0,0-3.4517-1.4281C430.1444,445.3985,422.675,445.0245,419.9942,451.1646Z" transform="translate(-86 -153)"/><path class="cls-7" d="M443.6089,451.0916a8.9227,8.9227,0,0,1,5.8022.6778,7.21,7.21,0,0,1,2.0234-4.4978c.1835-.1873.4614-.3759.6853-.24a.6058.6058,0,0,1,.221.3985,12.29,12.29,0,0,1,.2309,4.6029,4.6819,4.6819,0,0,1,4.5194,2.2592c-1.8833,1.1239-6.1753,2.3852-8.2888,1.3992-.8054-.3759-1.3792-1.264-2.0821-1.7953a15.46,15.46,0,0,0-3.9591-1.93C442.7405,451.46,443.081,451.21,443.6089,451.0916Z" transform="translate(-86 -153)"/><path class="cls-9" d="M437.4007,458.675a11.1287,11.1287,0,0,0,17.5942,12.9131,9.562,9.562,0,0,0,3.0368-5.3376,13.6785,13.6785,0,0,0-.8247-6.518,7.682,7.682,0,0,0-2.0006-3.54,7.2967,7.2967,0,0,0-3.1566-1.3952C446.9028,453.5732,440.0123,453.063,437.4007,458.675Z" transform="translate(-86 -153)"/><path class="cls-7" d="M431.8476,461.4538a10.1487,10.1487,0,0,1,5.7649,3.301,8.1983,8.1983,0,0,1,4.1252-3.8c.2757-.1138.65-.1869.8237.0557a.6892.6892,0,0,1,.0531.5155,13.9775,13.9775,0,0,1-1.815,4.9165,5.3239,5.3239,0,0,1,3.7167,4.3816c-2.4715.334-7.5233-.2645-9.2929-2.24-.6742-.7528-.8775-1.9378-1.3752-2.8076a17.5861,17.5861,0,0,0-3.278-3.7874C430.7746,461.4514,431.2427,461.3415,431.8476,461.4538Z" transform="translate(-86 -153)"/><path class="cls-7" d="M453.544,466.1706q2.6094,2.4258,4.9744,5.0976a38.3581,38.3581,0,0,1-12.72,10.02,30.78,30.78,0,0,0,11.6236.51,10.6,10.6,0,0,1-.789,5.3825,8.7949,8.7949,0,0,1-4.0044,3.3907,25.6776,25.6776,0,0,1-13.0508,2.5918c-3.0363-.1912-9.3892-.8715-11.0864-3.8877-.9653-1.7155-.4862-8.0189.8338-8.9764,1.4875-1.0793,4.4046-1.34,6.1607-2.0291a50.716,50.716,0,0,0,18.0583-12.0991Z" transform="translate(-86 -153)"/><path class="cls-10" d="M452.46,479.5355a4.5106,4.5106,0,0,1-2.6067-2.6713,2.4062,2.4062,0,0,1,1.62-3.0114,5.11,5.11,0,0,1-.66-8.7526,5.7554,5.7554,0,0,1,5.0458-8.2828,8.2527,8.2527,0,0,1,8.9987-6.1359,3.0828,3.0828,0,0,1,2.3492,1.3529,4.9874,4.9874,0,0,1,5.8974.4057,7.1764,7.1764,0,0,1,2.37,5.6707,4.2217,4.2217,0,0,1,4.5583,2.4666,8.7357,8.7357,0,0,1,.3582,5.5041,4.803,4.803,0,0,1,2.22,7.9688,2.3355,2.3355,0,0,1,1.5666,2.809,6.7829,6.7829,0,0,1-1.8663,3.0134c1.3679,1.1662,1.1991,3.4511.1266,4.8937a10.831,10.831,0,0,1-4.4107,2.9975c-3.0437,1.3965-6.1729,2.8155-9.5142,3.0385a23.4252,23.4252,0,0,1-12.7812-3.161C453.4236,486.1159,450.4738,482.2,452.46,479.5355Z" transform="translate(-86 -153)"/><rect class="cls-5" x="80.5437" y="346.2227" width="506.0321" height="190.5063"/><rect class="cls-11" x="80.5437" y="502.6628" width="506.0321" height="34.0662"/><rect class="cls-12" x="259.9369" y="275.5352" width="67.3387" height="56.7965"/><polygon class="cls-13" points="327.276 275.535 335.861 282.032 335.861 332.332 327.276 332.332 327.276 275.535"/><path class="cls-9" d="M421.9673,466.6105a12.6554,12.6554,0,0,0,12.63,21.3642,10.8761,10.8761,0,0,0,5.56-4.225,15.5554,15.5554,0,0,0,2.05-7.1846,8.7366,8.7366,0,0,0-.5105-4.5956A8.2989,8.2989,0,0,0,439.019,469.1C434.1835,465.5205,427.2057,461.9086,421.9673,466.6105Z" transform="translate(-86 -153)"/><path class="cls-8" d="M481.5518,476.3313a83.3456,83.3456,0,0,0-12.1267,12.1021c-.9444,1.0984-1.9456,2.4234-1.6658,3.8448a3.26,3.26,0,0,0,2.43,2.316,8.793,8.793,0,0,0,3.5121.019,69.7191,69.7191,0,0,0,21.7714-6.7875c3.6331-1.8312,7.49-4.5577,7.8913-8.6063a10.2785,10.2785,0,0,0-1.2779-5.4661c-1.8793-3.8077-4.9751-5.57-8.913-3.9526A50.225,50.225,0,0,0,481.5518,476.3313Z" transform="translate(-86 -153)"/><path class="cls-14" d="M607.42,488.6391c-.5572-2.0432.6615-43.9884.6615-50.2725s6.6147-7.6071,8.2685-10.5837.9922-8.2684.9922-9.5915,8.5993-.9922,8.5993-.9922.3307,5.2919.3307,8.5993,5.2919,3.3074,6.9455,10.2529.6614,49.9417.9922,52.5877S608.4122,492.2772,607.42,488.6391Z" transform="translate(-86 -153)"/><path class="cls-9" d="M616.7909,413.01c-1.5051.7526-.2205,3.7484-.2205,4.52s10.2529.7717,10.9145.3307.11-3.7484-.11-4.8509S617.4525,412.6791,616.7909,413.01Z" transform="translate(-86 -153)"/><path class="cls-14" d="M639.7222,487.3162c-.5572-2.0432.6616-43.9886.6616-50.2726s6.6148-7.607,8.2684-10.5836.9923-8.2686.9923-9.5915,8.5991-.9922,8.5991-.9922.3309,5.2918.3309,8.5992,5.2917,3.3074,6.9455,10.253.6614,49.9417.9922,52.5877S640.7145,490.9543,639.7222,487.3162Z" transform="translate(-86 -153)"/><path class="cls-10" d="M648.7625,413.01c-1.5052.7526-.2205,3.7484-.2205,4.52s10.2529.7717,10.9144.3307.11-3.7484-.11-4.8509S649.4239,412.6791,648.7625,413.01Z" transform="translate(-86 -153)"/><rect class="cls-4" x="65.9911" y="332.3317" width="539.1061" height="18.5214" rx="6.4204"/><path class="cls-4" d="M384.832,414.1123a4.41,4.41,0,1,1-4.41-4.41A4.41,4.41,0,0,1,384.832,414.1123Z" transform="translate(-86 -153)"/><path class="cls-15" d="M528.4841,470.3192l-.0079.0056C528.2625,470.4872,528.3378,470.4728,528.4841,470.3192Z" transform="translate(-86 -153)"/><path class="cls-15" d="M531.2156,464.8134a2.8721,2.8721,0,0,0-1.4.137,8.3374,8.3374,0,0,0-1.4224.5976c-.7114.4211-1.398.8924-2.0724,1.37a14.4325,14.4325,0,0,0-2.1823,1.7356,4.6191,4.6191,0,0,0-.9211,1.2146,7.0927,7.0927,0,0,0-.3286.7515,1.56,1.56,0,0,0,.0775,1.05,1.0245,1.0245,0,0,0,.7145.7695c.9561.4511,2.0648-.1195,2.8789-.6473a14.4835,14.4835,0,0,0,1.2673-.9487q.22-.18.4419-.3556a1.9778,1.9778,0,0,0,.2229-.1754l-.0077.0077c.6216-.4722,1.2616-.9155,1.9037-1.3585a10.5278,10.5278,0,0,0,1.1329-.947,4.3162,4.3162,0,0,0,.5247-.5566.8426.8426,0,0,0,.2165-.372l.0352-.0831.0747-.1736A1.3651,1.3651,0,0,0,531.2156,464.8134Z" transform="translate(-86 -153)"/><path class="cls-15" d="M558.3112,463.9358a2.11,2.11,0,0,0-1.8269-.5793,5.9652,5.9652,0,0,0-.7592.0949,4.1907,4.1907,0,0,0-.7837.3469c-.2259.115-.4485.2376-.671.3587a23.8853,23.8853,0,0,0-2.6543,1.7688,20.8529,20.8529,0,0,0-2.6019,2.09,5.8357,5.8357,0,0,0-1.2794,1.8949,2.9277,2.9277,0,0,0,.2367,2.5271,1.9014,1.9014,0,0,0,1.4526.9494,2.0544,2.0544,0,0,0,1.67-.547c-.48.3877-.2917.22-.1577.1385a2.7319,2.7319,0,0,0,.5886-.4526,7.5186,7.5186,0,0,0,.6431-.8778c.0345-.0508.0684-.1018.1026-.1529.138-.15.2736-.3008.42-.443.31-.3008.6439-.5761.9773-.85q.2935-.2413.59-.4781c.0989-.079.1985-.1572.2978-.2357l.014-.0109c.8806-.6673,1.77-1.32,2.6392-2.0023l.1764-.1377c.0316-.0246.034-.026.08-.062a3.5825,3.5825,0,0,0,.33-.2659,4.7445,4.7445,0,0,0,.6121-.8923A1.8657,1.8657,0,0,0,558.3112,463.9358Z" transform="translate(-86 -153)"/><path class="cls-15" d="M581.264,465.2134a5.7575,5.7575,0,0,0-2.81,1.0928c-.7673.5592-1.52,1.1392-2.2608,1.7332a4.8386,4.8386,0,0,0-.8127.8061,8.33,8.33,0,0,0-.9446,1.2931c-.1116.2173-.2172.4324-.3122.6578a2.5185,2.5185,0,0,0-.1616.6219.3256.3256,0,0,0-.0339.0905,3.0329,3.0329,0,0,0-.145.7669,1.6223,1.6223,0,0,0,.1328.6744,1.7344,1.7344,0,0,1,.1226.2715.55.55,0,0,0,.427.3954,1.9832,1.9832,0,0,0,1.7324.09q.16-.0386-.0962.0028-.3641.0444.1166-.018a1.8921,1.8921,0,0,0,.6362-.1644c.2255-.0951.4441-.2.6651-.3046a8.6638,8.6638,0,0,0,2.2164-1.64c1.2241-1.1963,2.7624-2.2795,3.3846-3.9315A1.9357,1.9357,0,0,0,581.264,465.2134Z" transform="translate(-86 -153)"/><path class="cls-15" d="M543.43,463.9461a1.2686,1.2686,0,0,0-1.1786-.3113q-.2211.0348-.442.0705a2.4606,2.4606,0,0,0-.7238.28,4.8633,4.8633,0,0,0-1.07.711l-1.4965,1.3511-1.4549,1.3137a3.3023,3.3023,0,0,0-.945,1.168,4.2485,4.2485,0,0,0-.2046.5945,2.5858,2.5858,0,0,0-.0055,1.0574,1.3832,1.3832,0,0,0,1,.9994,2.9167,2.9167,0,0,0,1.4551-.083,3.4219,3.4219,0,0,0,1.3868-.971q.715-.7083,1.43-1.417.6955-.689,1.3908-1.3776a5.1729,5.1729,0,0,0,.7562-1.0307,3.62,3.62,0,0,0,.4137-1.1766A1.2435,1.2435,0,0,0,543.43,463.9461Z" transform="translate(-86 -153)"/><path class="cls-15" d="M571.2284,465.4025a1.2522,1.2522,0,0,0-.6152-1.2289l.1535.1215a1.1572,1.1572,0,0,0-.3724-.2778,1.9739,1.9739,0,0,0-.9335-.26c-.1844,0-.3686.01-.5534.0078a4.23,4.23,0,0,0-1.6513.3768,7.3718,7.3718,0,0,0-1.5755.8338q-.5441.373-1.0705.7716c-.8022.6074-1.5888,1.2326-2.3358,1.9073a5.1865,5.1865,0,0,0-1.0835,1.3324c-.108.193-.2229.3863-.32.5854a2.9938,2.9938,0,0,0-.2671,1.2458,1.6151,1.6151,0,0,0,1.6023,1.602,2.8583,2.8583,0,0,0,1.022-.1705c.2415-.1017.4736-.2212.71-.3341a6.3346,6.3346,0,0,0,.6114-.2966,8.3875,8.3875,0,0,0,.83-.6641c.1063-.0873.2148-.1729.3228-.2588-.0654.0489-.0806.056.086-.07l.0184-.0141c.02-.0161.0411-.0316.0608-.0485-.0144.0127-.0294.0239-.0445.0366.062-.0466.1241-.0933.1864-.1394q.5282-.3911,1.0739-.7564a27.4741,27.4741,0,0,0,2.4549-1.6425,5.23,5.23,0,0,0,1.15-1.1945c.0362-.0556.0739-.1109.11-.1668q.1016-.1311.2023-.2621A1.8479,1.8479,0,0,0,571.2284,465.4025Z" transform="translate(-86 -153)"/><path class="cls-15" d="M565.7021,470.6961c.0331-.0246.074-.0571.1207-.0958l-.0163.0119C565.7724,470.6411,565.737,470.6682,565.7021,470.6961Z" transform="translate(-86 -153)"/><path class="cls-16" d="M485.6785,483.6374c-.0288-.0359-.0581-.0715-.0869-.1073C485.5883,483.531,485.774,483.7564,485.6785,483.6374Z" transform="translate(-86 -153)"/><path class="cls-16" d="M488.3827,482.84c-.0268-.1-.0522-.2007-.0846-.2989a2.4481,2.4481,0,0,0-.4891-.8q-.2489-.3071-.5158-.5987a9.2282,9.2282,0,0,0-1.1692-1.08,13.9063,13.9063,0,0,0-1.4754-1.0068c-.1191-.07-.2393-.1405-.3621-.2042a2.1459,2.1459,0,0,0-.8255-.2221,1.6686,1.6686,0,0,0-.874.0559.7549.7549,0,0,0-.4979.5627v-.0648c-.0085.063-.0169.1265-.0255.1895a1.51,1.51,0,0,0,.04.2754,1.28,1.28,0,0,0,.1916.4215,3.4227,3.4227,0,0,0,.7283.86c-.26-.2017.0131.012.0775.0644q.1437.1174.2842.2388.2973.2568.5788.5321c.3465.3385.68.6944,1.01,1.049q.2413.2594.4683.5318c.05.0609.1.1229.149.1846.0007,0-.0043-.0071.0151.015a3.133,3.133,0,0,0,.451.4952,7.3652,7.3652,0,0,0,.6529.4483,1.455,1.455,0,0,0,.9183.1476.822.822,0,0,0,.6868-.505A1.6733,1.6733,0,0,0,488.3827,482.84Z" transform="translate(-86 -153)"/><path class="cls-16" d="M498.8266,479.0955a9.7737,9.7737,0,0,0-1.4357-2.1256,12.3428,12.3428,0,0,0-1.6349-1.5484,12.1634,12.1634,0,0,0-1.09-.8307,6.9522,6.9522,0,0,0-.9852-.4732,7.3667,7.3667,0,0,0-1.1525-.45,8.5854,8.5854,0,0,0-1.13-.1521.453.453,0,0,0-.3891.6782c.1836.2511.3452.516.5226.7706.2084.2985.4628.5665.6907.8511.0221.03.0968.1282.1053.1391.0391.0535.0777.1071.1163.161.0966.1359.1888.275.2875.41.1556.2113.3275.4057.4941.6078.0305.037.0672.09.1052.1413.0068.0009.0273.019.0788.0876l.0036.0052.0117.0131-.0074-.0068a18.2737,18.2737,0,0,1,1.1156,1.7358c.177.3022.37.5945.5405.9009.1792.3219.3257.6627.5087.9818a1.8558,1.8558,0,0,0,1.6224.93,1.7985,1.7985,0,0,0,1.3284-.55A1.9853,1.9853,0,0,0,498.8266,479.0955Z" transform="translate(-86 -153)"/><path class="cls-16" d="M493.3306,477.2746c-.01-.0012.0208.0467.0867.0991l-.0043-.0063A.622.622,0,0,1,493.3306,477.2746Z" transform="translate(-86 -153)"/><path class="cls-16" d="M490.4856,464.2979a22.76,22.76,0,0,0-2.3424-.8955q-1.087-.4051-2.1744-.8107a5.6333,5.6333,0,0,0-1.14-.39,2.3432,2.3432,0,0,0-.7529.0715,1.3266,1.3266,0,0,0-.2972.0778c-.0335.0145-.3295.1792-.1951.125a.4276.4276,0,0,0-.26.5894c.004.0307.01.074.0232.1652a.703.703,0,0,0,.1362.2649,3.6993,3.6993,0,0,0,.3445.468,2.7027,2.7027,0,0,0,1.03.5834q.9417.4089,1.884.8181t1.8836.8181c.1617.07.3275.1347.4861.2108a1.44,1.44,0,0,1,.1544.0792.4108.4108,0,0,0,.0536.0328c.0922.09.1939.2078.0162.01l.0014.0007a1.2511,1.2511,0,0,0,.2341.2342,1.1508,1.1508,0,0,0,2.0557-.3012A1.8744,1.8744,0,0,0,490.4856,464.2979Z" transform="translate(-86 -153)"/><path class="cls-16" d="M491.8821,456.8626a8.9733,8.9733,0,0,0-2.48-1.1212,11.4786,11.4786,0,0,0-2.5955-.4574,3.4029,3.4029,0,0,0-1.3439.245,3.1458,3.1458,0,0,0-.654.2717,1.6474,1.6474,0,0,0-.3933.4446.43.43,0,0,0,0,.5973,4.1393,4.1393,0,0,0,.3106.3064,2.06,2.06,0,0,0,.6208.2753c.147.0515.293.1061.4371.1656.0595.026.2492.107.2218.0954a1.4838,1.4838,0,0,0,.3352.1c.3744.07.7438.1471,1.11.2535q.275.08.5451.1754.12.0429.2394.0881c.02.0077.1494.0612.2021.0824.0427.0193.0939.0429.1042.0475.0764.0359.1525.0722.2279.11q.2554.1261.5032.2676c.331.1881.6524.3965.9743.5994q.2414.1521.4741.3186l.0887.0644c.0387.03.0989.0771.1109.0871a2.8106,2.8106,0,0,0,1.6664.8155,1.3206,1.3206,0,0,0,1.3152-1.3153C493.8109,458.1906,492.788,457.4871,491.8821,456.8626Z" transform="translate(-86 -153)"/><path class="cls-17" d="M473.9235,463.4664a4.6675,4.6675,0,0,0-2.4105-2.0554c-.0007-.0208.0028-.0416.0017-.0623a5.9527,5.9527,0,0,0-.1726-1.1469,6.3816,6.3816,0,0,0-2.3917-3.4458,5.88,5.88,0,0,0-1.9627-.97c-.8192-.2254-2.15-.4346-2.6852.4141a.87.87,0,0,0,.1335,1.0357,1.9339,1.9339,0,0,0,1.298.4c.0124,0,.007,0,.0163,0,.0552.01.11.0179.165.0291a4.4616,4.4616,0,0,1,.5163.1375c.0726.0239.1433.0518.2151.0771.1248.0633.2515.1208.3733.19q.2024.1136.3934.2458a1.8891,1.8891,0,0,1,.1712.1234c.0147.014.0184.0192.0391.0368a6.8209,6.8209,0,0,1,.6552.6639l.0089.0091c.0335.0445.0671.0906.0976.1345a5.2762,5.2762,0,0,1,.2861.4607c.0624.1127.1184.2285.1741.3451l.0007.0014.0017.0056c.025.0726.0531.1436.0772.2169.0478.1451.0886.2931.1218.4427q.0167.0746.0307.15c.0042.0222.0073.0443.0112.0665l0,.0141c-.0423.0025-.0828,0-.1256.0032a2.5323,2.5323,0,0,0-.69.1247c-.1947.0721-.3857.1429-.5849.2017a.512.512,0,0,0,0,.978,4.4639,4.4639,0,0,1,.4691.2349,3.781,3.781,0,0,0,.6447.2465c.3623.1147.7187.2352,1.0827.3433a3.274,3.274,0,0,1,.4352.1418l.0584.0262c.0482.0218.0959.0443.1435.0675q.1428.07.2805.1494.1033.06.2038.1254c.0448.0292.0888.0591.1324.09.0994.0729.0872.0624-.037-.0325.1175.04.27.24.35.3265.0088.01.0356.042.0631.074.03.042.0721.1.082.1151a3.8241,3.8241,0,0,1,.2218.4022c.0049.0155.002.01.0107.0352.0256.0737.0481.148.0682.2232.0194.0726.0331.1462.05.2195l0,.0035c.0108.15-.0131.3015-.0051.45l.0082-.0571a.9161.9161,0,0,0-.0325.2783c.0034.0534.0141.1056.02.1588-.0031-.0183-.0024-.004.0035.0581a2.7009,2.7009,0,0,0,.0361.6395,1.7073,1.7073,0,0,0,.0863.1993c.01.0408.0306.0891.04.124a.6642.6642,0,0,0,.6247.4753,1.3432,1.3432,0,0,0,1.1113-.4134,2.2046,2.2046,0,0,0,.6186-1.399A4.1932,4.1932,0,0,0,473.9235,463.4664Z" transform="translate(-86 -153)"/><path class="cls-17" d="M478.8941,471.413a2.1537,2.1537,0,0,0-.8015-.7747,2.0457,2.0457,0,0,0-.9779-.1888.3141.3141,0,0,0-.2833.1906.3068.3068,0,0,0,.0641.3383,1.5819,1.5819,0,0,1,.1322.1255c.0214.0228.0413.0471.0619.07.0656.075-.0426-.0672.0035.0064.032.0514.0652.1007.0937.1543.0148.0274.0279.0555.042.0834.005.01.0032.0049.0053.0089.0395.0928.0822.1781.1263.2682l.0069.0148.01.0267a2.0194,2.0194,0,0,1,.0719.2984c.0049.1235.0021.2472.0156.3694a2.0874,2.0874,0,0,1-.0021.3683,1.7129,1.7129,0,0,1-.0829.2989c.0244-.0577.049-.1158.0733-.1738a.9507.9507,0,0,0-.0866.6687.8736.8736,0,0,0,1.5962.2084,2.7152,2.7152,0,0,0,.3064-1.2058A1.9916,1.9916,0,0,0,478.8941,471.413Z" transform="translate(-86 -153)"/><path class="cls-17" d="M459.0916,472.2262a3.3291,3.3291,0,0,0-.6689-.8875,2.524,2.524,0,0,0,.3789-1.4477,4.5648,4.5648,0,0,0-.6179-2.3791,4.4271,4.4271,0,0,0-1.6954-1.6255,4.64,4.64,0,0,0-1.1166-.4338,3.84,3.84,0,0,0-.6615-.1047,1.6438,1.6438,0,0,0-.7038.1413.9622.9622,0,0,0-.6842.8987.99.99,0,0,0,.6842.8987c-.2306-.0961-.0141.0018.0239.02a1.7363,1.7363,0,0,0,.3572.1426c.1367.03.2736.0514.4088.09.0736.0211.145.0485.2183.07l.0111.0029c.1181.0569.2351.1136.3478.1813q.0821.0492.1611.1028c.0528.0359.0537.0415.0551.0462.0782.0752.1737.1446.2459.2186q.0669.0681.13.14c.0251.0286.05.0581.0736.0876q.0794.0984-.0616-.0785c.0578.0068.2.3166.2231.361.0076.0145.0238.0391.0384.0626.0007.003-.0017-.0021.0083.0241.0144.037.0277.0742.04.1119a3.2651,3.2651,0,0,1,.1038.3835c.008.0373.0149.0747.0213.1123l.0036.0873a3.5775,3.5775,0,0,1-.0027.4381c-.004.0585.0242.26-.004.0782-.0268-.1719-.0044.0085-.0182.0757-.0163.0778-.0354.155-.05.2335-.0022.012,0,.02-.0027.0321a1.3752,1.3752,0,0,0-.4625.0373,2.4964,2.4964,0,0,0-.7065.313.2844.2844,0,0,0,.1423.5251,1.8052,1.8052,0,0,1,.41.0979l.0524.02c.0051.0032.05.0233.0666.03a2.9355,2.9355,0,0,0,.3337.1186c.034.0109.0673.0226.1007.0349l.0305.0112c.0639.0321.1289.0609.1913.0958.027.0152.0519.0328.0784.0487a.5665.5665,0,0,0,.4445.3647c.0391.0406.0834.0757.12.1184.0173.02.0979.1288.044.0507l.013.019q.0744.1046.14.2155.06.1025.1108.2092l.0083.0179.0162.0423a2.5939,2.5939,0,0,1,.1222.4941l-.0316-.2345a1.41,1.41,0,0,0,.2148.7536,1.1454,1.1454,0,0,0,.4933.3957c-.0391-.0169-.0747-.031.0041.0049l.0061.0007c.0071.0028.0108.0079.018.01.0416.0159.0159.0039-.0144-.01a.4891.4891,0,0,0,.3506.0349,1.0015,1.0015,0,0,0,.671-.6353A1.579,1.579,0,0,0,459.0916,472.2262Z" transform="translate(-86 -153)"/><path class="cls-17" d="M468.3673,472.9723a3.0074,3.0074,0,0,0-.7138-1.4353,4.6594,4.6594,0,0,0-.5906-.4949,2.4951,2.4951,0,0,0-.2513-.1658,1.61,1.61,0,0,0-.6262-.1545,2.7069,2.7069,0,0,0-.5011-.0142.87.87,0,0,0-.4126.09,1.248,1.248,0,0,0-.1786.1464.1669.1669,0,0,0-.0435.1645,1.0117,1.0117,0,0,0,.1806.3663c.0393.045.077.0919.1161.1369a.0416.0416,0,0,1,.0031.0042c.0184.0276.0374.0539.0553.0815.07.1059.1236.2186.1838.33a2.073,2.073,0,0,0,.2842.3673c.1173.1717.2085.357.3254.5282a3.5882,3.5882,0,0,1,.32.5714,1.5485,1.5485,0,0,0,.1138.2916,1.03,1.03,0,0,0,.8607.4913.9042.9042,0,0,0,.6319-.2818A1.0256,1.0256,0,0,0,468.3673,472.9723Z" transform="translate(-86 -153)"/><path class="cls-17" d="M466.1608,481.3175a3.0426,3.0426,0,0,0-.0384-.6293,3.177,3.177,0,0,0-.7094-1.5759,1.3092,1.3092,0,0,0-.5048-.3327,2.5728,2.5728,0,0,0-1.0622-.2363.284.284,0,0,0-.1421.5247,1.7144,1.7144,0,0,1,.2845.2631c.009.01.0922.1134.0257.026.0229.03.0447.0609.0656.0919.0358.0536.0693.1088.1.1651.0281.0511.1464.286.0524.092a1.3323,1.3323,0,0,0,.1458.262c.0257.0337.0517.0676.0786.1007l-.056-.0715c0,.0429.1116.1638.1368.206.0389.0648.0748.1318.1077.2.0072.0148.0162.0327.0238.0511l.0131.0344q.0388.1068.0682.2163c.02.0733.0363.1468.0495.2211l.0013.0075c.001.026.0052.0548.0066.0773a5.1521,5.1521,0,0,0,.0283.5847c.0031.0178.0073.0468.0133.07l.0014.0148a.8333.8333,0,0,0,.1036.3349c.001.0179.0038.0356.0045.0532a.3426.3426,0,0,0,.5772.239c.0274-.0228.0523-.0482.0785-.0717a.606.606,0,0,0,.2962-.2293A1.457,1.457,0,0,0,466.1608,481.3175Z" transform="translate(-86 -153)"/><path class="cls-18" d="M430.182,468.905a2.3755,2.3755,0,0,0-.7374-.9578,2.3658,2.3658,0,0,0-1.4511-.5142c-.13-.0007-.2594.0011-.3885.0091a4.4424,4.4424,0,0,0-.7926.115,5.9557,5.9557,0,0,0-.7516.3193,6.9484,6.9484,0,0,0-.7232.3807,7.4241,7.4241,0,0,0-.6475.4437,5.8363,5.8363,0,0,0-1.0561.9053c-.0384.0476-.0758.0956-.1132.1434a2.8681,2.8681,0,0,0-.5938.9262,1.92,1.92,0,0,0-.22.9827q-.0045.045-.0081.09c-.0039.046-.0069.0919-.0092.138a2.1316,2.1316,0,0,0,2.7615,2.3453c.0955-.0247.19-.05.2862-.0718a3.1215,3.1215,0,0,0,1.3774-.73c.1085-.0916.217-.1823.3292-.27q-.2645.2038-.5285.4085c.2981-.2279.5683-.4476.844-.6913l.0112-.0092a6.949,6.949,0,0,1,.67-.4412,4.922,4.922,0,0,0,.66-.4109c.2042-.1578.3849-.3354.5863-.4945q.1869-.2424.3743-.4849l.2414-.5718q.0429-.318.0856-.6367A1.8051,1.8051,0,0,0,430.182,468.905Z" transform="translate(-86 -153)"/><path class="cls-18" d="M432.9063,449.6017a1.04,1.04,0,0,0-.2164-.52,1.0183,1.0183,0,0,0-.57-.3936c-.207-.0367-.416-.0571-.6245-.08a3.8094,3.8094,0,0,0-1.92.0063,6.92,6.92,0,0,0-1.0246.417q-.2027.1563-.405.3127c-.0233.0243-.0466.0485-.0694.0733q-.0519.0549-.1026.1115c-.079.0888-.156.18-.2291.2734a2.102,2.102,0,0,0-.553,1.3345q.0339.2509.0675.5018a1.4182,1.4182,0,0,0,.3379.6416,1.798,1.798,0,0,0,.98.6765,1.991,1.991,0,0,0,1.4546-.19c.1463-.0832.2938-.1641.4453-.2376a3.1162,3.1162,0,0,0,.7446-.6037c.1141-.1077.2347-.2063.3532-.3085a2.2663,2.2663,0,0,0,.371-.469,3.1012,3.1012,0,0,1,.4679-.479A1.1064,1.1064,0,0,0,432.9063,449.6017Z" transform="translate(-86 -153)"/><path class="cls-19" d="M610.7274,482.355c.4621,2.5416,18.1907,2.3152,19.1829.6615s3.3074-41.6732.9922-45.9729-3.3074-4.961-5.2918-5.9532-6.6149-.9923-8.5992.6614-4.3,3.6382-5.2919,9.5915S610.066,478.7169,610.7274,482.355Z" transform="translate(-86 -153)"/><path class="cls-20" d="M642.7264,482.355c.4621,2.5416,18.1907,2.3152,19.183.6615s3.3074-41.6732.9922-45.9729-3.3074-4.961-5.2919-5.9532-6.6147-.9923-8.5992.6614-4.3,3.6382-5.2918,9.5915S642.065,478.7169,642.7264,482.355Z" transform="translate(-86 -153)"/><path class="cls-21" d="M631.1716,457.3363c-.0117-.0422-.04-.0662-.0536-.1064a1.8483,1.8483,0,0,0-1.2128-1.2762,2.3483,2.3483,0,0,0-1.4832-.5243c-.3844.0049-.7688.0021-1.153.0061a5.0308,5.0308,0,0,0-.29-.6777,6.7455,6.7455,0,0,0-5.9987-4.0348l-1.745.2345a6.5571,6.5571,0,0,0-2.8966,1.6878l-1.0263,1.3287a6.6367,6.6367,0,0,0-.6278,1.4744c-.642.0025-1.2841,0-1.9262.0018a2.4269,2.4269,0,0,0-1.915.9727,2.3259,2.3259,0,0,0,.0661,2.9981,2.416,2.416,0,0,0,1.8489.8895c.8039.0026,1.6079-.0014,2.4118.0019a6.7529,6.7529,0,0,0,5.81,3.6358l1.7448-.2345a6.5583,6.5583,0,0,0,2.8965-1.6882q.5135-.6641,1.0265-1.3283c.0709-.1226.1239-.25.1864-.3743.5292.0049,1.0583.0014,1.5874.0084a2.3471,2.3471,0,0,0,1.4783-.5233,1.8536,1.8536,0,0,0,1.2247-1.2921c.0114-.0348.0366-.0555.0466-.0915a2.8555,2.8555,0,0,0,0-1.0881Z" transform="translate(-86 -153)"/><path class="cls-21" d="M663.9148,457.3363c-.0117-.0422-.04-.0662-.0535-.1064a1.8484,1.8484,0,0,0-1.2129-1.2762,2.348,2.348,0,0,0-1.4833-.5243c-.3843.0049-.7686.0021-1.1528.0061a5.0066,5.0066,0,0,0-.29-.6777,6.7452,6.7452,0,0,0-5.9986-4.0348l-1.745.2345a6.5591,6.5591,0,0,0-2.8967,1.6878l-1.026,1.3287a6.6328,6.6328,0,0,0-.628,1.4744c-.6419.0025-1.2841,0-1.9261.0018a2.4266,2.4266,0,0,0-1.915.9727,2.3257,2.3257,0,0,0,.066,2.9981,2.4163,2.4163,0,0,0,1.849.8895c.8038.0026,1.6077-.0014,2.4117.0019a6.7532,6.7532,0,0,0,5.81,3.6358l1.7449-.2345a6.558,6.558,0,0,0,2.8964-1.6882q.5136-.6641,1.0265-1.3283c.071-.1226.1241-.25.1865-.3743.5291.0049,1.0582.0014,1.5872.0084a2.3465,2.3465,0,0,0,1.4784-.5233,1.8537,1.8537,0,0,0,1.2248-1.2921c.0114-.0348.0366-.0555.0465-.0915a2.85,2.85,0,0,0,0-1.0881Z" transform="translate(-86 -153)"/><path class="cls-13" d="M355.1035,477.9221a6.7654,6.7654,0,0,0-.3988-.9808q-.2054-.2661-.4111-.532a1.974,1.974,0,0,0-.8459-.5437,1.3083,1.3083,0,0,0-.6634-.1792,1.99,1.99,0,0,0-1.0481.0468l-.6282.2652-.5318.4109a2.9236,2.9236,0,0,0-.77,1.8586q-.0237.2656-.0475.531l-.0234.2572-.0115.1284c-.0018.0215-.0042.043-.0056.0644-.0017.0156.0063.0307.0056.0459,0,.0215.0073.0429.008.0647a.8166.8166,0,0,0,.0307.2466,2.2137,2.2137,0,0,0,.0522.37,2.8574,2.8574,0,0,0,1.1734,1.5262,2.5094,2.5094,0,0,0,2.647-.0588,2.6576,2.6576,0,0,0,.8543-.5508q.2091-.2709.4184-.5416A2.6613,2.6613,0,0,0,355.2733,479,7.3509,7.3509,0,0,0,355.1035,477.9221Z" transform="translate(-86 -153)"/><path class="cls-13" d="M363.2066,477.9221a6.765,6.765,0,0,0-.3987-.9808q-.2055-.2661-.4112-.532a1.9731,1.9731,0,0,0-.8458-.5437,1.3089,1.3089,0,0,0-.6635-.1792,1.99,1.99,0,0,0-1.0481.0468l-.6281.2652q-.2658.2052-.5319.4109a2.9228,2.9228,0,0,0-.77,1.8586q-.0238.2656-.0476.531l-.0233.2572-.0116.1284c-.0018.0215-.0042.043-.0056.0644-.0015.0156.0063.0307.0056.0459,0,.0215.0073.0429.008.0647a.8166.8166,0,0,0,.0307.2466,2.2137,2.2137,0,0,0,.0522.37,2.8587,2.8587,0,0,0,1.1734,1.5262,2.5094,2.5094,0,0,0,2.647-.0588,2.6576,2.6576,0,0,0,.8543-.5508q.2093-.2709.4184-.5416A2.6613,2.6613,0,0,0,363.3764,479,7.3509,7.3509,0,0,0,363.2066,477.9221Z" transform="translate(-86 -153)"/><path class="cls-13" d="M371.31,477.9221a6.7768,6.7768,0,0,0-.3988-.9808q-.2055-.2661-.4112-.532a1.9731,1.9731,0,0,0-.8458-.5437,1.3086,1.3086,0,0,0-.6635-.1792,1.99,1.99,0,0,0-1.0481.0468l-.6281.2652-.5319.4109a2.9228,2.9228,0,0,0-.77,1.8586q-.0238.2656-.0476.531l-.0232.2572-.0117.1284c-.0018.0215-.0042.043-.0056.0644-.0015.0156.0063.0307.0056.0459,0,.0215.0075.0429.0082.0647a.81.81,0,0,0,.0305.2466,2.2242,2.2242,0,0,0,.0522.37,2.8587,2.8587,0,0,0,1.1734,1.5262,2.5094,2.5094,0,0,0,2.647-.0588,2.658,2.658,0,0,0,.8544-.5508q.2091-.2709.4183-.5416A2.66,2.66,0,0,0,371.48,479,7.3505,7.3505,0,0,0,371.31,477.9221Z" transform="translate(-86 -153)"/><path class="cls-22" d="M485.377,375.0851c-.4411-5.5122-12.6734,2.15-13.45,4.1894a29.323,29.323,0,0,1-.57,7.15,15.3764,15.3764,0,0,0,7.0883,3.776,23.26,23.26,0,0,0,10.0316-.0809C487.3332,385.6356,485.6627,378.6565,485.377,375.0851Z" transform="translate(-86 -153)"/><circle class="cls-23" cx="410.082" cy="175.4669" r="11.4241"/><path class="cls-23" d="M454.0206,344.7376s1.7309-18.5209,23.8868-20.7711,32.1952,14.7129,30.9835,29.2527-10.7318,30.6373-23.7136,28.56S454.0206,344.7376,454.0206,344.7376Z" transform="translate(-86 -153)"/><path class="cls-3" d="M491.4086,351.142s14.0245-4.4343,17.1361-6.9237c2.5964-2.077.8655-4.5-.5193-4.3272s-16.79,10.0393-20.9441,10.7317S491.4086,351.142,491.4086,351.142Z" transform="translate(-86 -153)"/><path class="cls-2" d="M492.4472,355.2963s6.0581-1.2116,7.27,3.1156-2.4234,9.174-6.5777,9.347c0,0-1.904,18.4632-19.444,18.3478-18.01-.1184-22.4444-25.4445-20.021-32.1952s11.424-1.904,11.77-1.904,19.3865-.6923,19.9057-.8655,4.8466,12.29,3.2888,19.9057C488.6391,371.0477,492.274,366.028,492.4472,355.2963Z" transform="translate(-86 -153)"/><path class="cls-3" d="M454.0206,344.7376s-10.0393,5.539-2.4234,9.3471,31.5029,1.2116,39.8114-2.9427C491.4086,351.142,469.772,340.93,454.0206,344.7376Z" transform="translate(-86 -153)"/><path class="cls-24" d="M493.5026,354.6218c-.6788-.6546-1.6669.0538-2.1352.6008a10.1426,10.1426,0,0,0-1.8595,4.9155,26.3478,26.3478,0,0,0-.45,3.5381c-.036.83-.14,2.5083.6929,3.02a.1651.1651,0,0,0,.1669,0c.6928-.4243.7734-1.75.8623-2.4673.1308-1.0572.2453-2.1139.4351-3.1625.2818-1.5565.543-3.54,1.6932-4.7342C493.2928,355.9328,494.0932,355.1913,493.5026,354.6218Z" transform="translate(-86 -153)"/><path class="cls-24" d="M493.53,368.8483c.0446-.0217.06-.03,0,0Z" transform="translate(-86 -153)"/><path class="cls-24" d="M495.4559,369.176a.6564.6564,0,0,0-.2268-.5665.78.78,0,0,0-.52-.1257.2408.2408,0,0,1-.0453-.0044,1.2076,1.2076,0,0,0-.148-.0163,1.0826,1.0826,0,0,0-.537.1533c-.1246.0678-.25.1347-.3766.2-.0521.027-.1066.05-.1585.0764.0464-.0244.0647-.0336.0862-.0443a.9329.9329,0,0,1-.0906.04c-.1275.0442-.2587.0737-.3878.1113-.1319.0384-.2628.0685-.397.0951a.2567.2567,0,0,1,.048-.0019.3141.3141,0,0,0-.0625.0055l-.0247.0059c-.0145.003-.0107-.0014-.02-.0018l-.0185.0016c-.0749.005-.15.0077-.2252.0068-.285-.0021-.5768-.0559-.8606-.0386a.6222.6222,0,0,0-.5322.9274,2.4126,2.4126,0,0,0,1.87.8632,2.8617,2.8617,0,0,0,1-.0874,3.26,3.26,0,0,0,.9027-.3749,1.7709,1.7709,0,0,0,.5748-.5244,1.5908,1.5908,0,0,0,.1-.2432c.0292-.0948.0474-.39.0261-.202C495.41,369.6342,495.4539,369.2486,495.4559,369.176Z" transform="translate(-86 -153)"/><path class="cls-24" d="M492.6545,369.0942c-.0775.0011-.093.0066-.0593.0077.0147-.0018.03-.0018.0448-.0041Z" transform="translate(-86 -153)"/><path class="cls-21" d="M454.6552,369.9542c.6776-3.8962,5.6544-1.8955,7.7314-2.6539s4.1543-3.1594,6.693-1.5165,9.1163,3.2859,12.6935,1.8956,5.8851-4.17,8.77-2.6538,3.088,19.6235-15.463,21.7735C460.54,388.4843,454.1936,372.6082,454.6552,369.9542Z" transform="translate(-86 -153)"/><path class="cls-24" d="M475.3773,371.13c-.962-.34-2.0238.3926-2.9129.7088a12.8576,12.8576,0,0,1-2.8848.6525,11.9879,11.9879,0,0,1-2.9281-.0232,15.0654,15.0654,0,0,1-1.4813-.3019c-.2521-.0612-.4948-.1347-.7517-.1733-.2111-.0314-.4584.0081-.6568-.0273a.1724.1724,0,0,0-.1664.2857,6.5039,6.5039,0,0,0,.4329.5264,3.2935,3.2935,0,0,0,.6191.4024,9.0352,9.0352,0,0,0,1.5487.6343,11.3882,11.3882,0,0,0,3.4728.5158,10.6045,10.6045,0,0,0,3.4073-.6075c1.0342-.3616,2.5186-.9429,2.5913-2.2115A.4028.4028,0,0,0,475.3773,371.13Z" transform="translate(-86 -153)"/><path class="cls-24" d="M479.5239,378.3908c-.61.1961-1.206.0814-1.81.272-.6347.2-1.2337.5135-1.8614.7353a14.0007,14.0007,0,0,1-3.7571.8217,13.3727,13.3727,0,0,1-3.7572-.275,27.3458,27.3458,0,0,0-3.7126-.9244.2735.2735,0,0,0-.2345.4084,6.1159,6.1159,0,0,0,3.4721,2.238,14.0936,14.0936,0,0,0,4.3443.6278,13.5754,13.5754,0,0,0,4.36-.7221,7.3246,7.3246,0,0,0,2.0623-1.0187,6.7562,6.7562,0,0,0,1.22-1.7383A.2918.2918,0,0,0,479.5239,378.3908Z" transform="translate(-86 -153)"/><path class="cls-23" d="M462.8189,357.617a1.4863,1.4863,0,0,0-.8728-.5906,4.4373,4.4373,0,0,0-.5772-.1271,5.2994,5.2994,0,0,0-1.36-.056,4.702,4.702,0,0,0-1.438.3579,2.8194,2.8194,0,0,0-.5091.2882,2.5227,2.5227,0,0,0-.3494.2746,1.7248,1.7248,0,0,0-.1243.1519.37.37,0,0,0-.0953.164c-.0137.0339-.0166.04-.023.0546-.208.4.08,1.0324.5842.9738q-.216-.0615.1178.0011a1.7664,1.7664,0,0,0,.2633-.0405c.0889-.0207.1724-.0509.26-.0785.1529-.0484.3095-.0871.4646-.1287.179-.0479.3616-.087.5427-.1254a1.6931,1.6931,0,0,1,.2662-.0475c.031-.0007.06-.0021.0755-.003a4.4835,4.4835,0,0,1,.5224-.0091c.0928.0041.1851.0132.2778.02.0111.0012.0056,0,.0131.0007.0135.003.0139.0037.0488.01a3.5168,3.5168,0,0,0,1.3845.2077A.89.89,0,0,0,462.8189,357.617Z" transform="translate(-86 -153)"/><path class="cls-23" d="M457.47,358.1345c.0052-.01.0023-.0218.0078-.0309C457.4542,358.17,457.4563,358.1676,457.47,358.1345Z" transform="translate(-86 -153)"/><path class="cls-23" d="M461.482,362.38a1.2937,1.2937,0,0,0-.5651-.7346q-.1467-.0618-.2937-.1242a.93.93,0,0,0-.49-.0217.6058.6058,0,0,0-.31.084.9214.9214,0,0,0-.3955.2539,1.2637,1.2637,0,0,0-.36.8695,10.4469,10.4469,0,0,0,.0452,1.3052,1.545,1.545,0,0,0-.03.3458,1.2767,1.2767,0,0,0,.3642.8791l.2515.1947a.93.93,0,0,0,.4624.1474.63.63,0,0,0,.33,0,.93.93,0,0,0,.4624-.1474,1.34,1.34,0,0,0,.5715-.7432,3.7194,3.7194,0,0,0-.0425-2.3085Z" transform="translate(-86 -153)"/><path class="cls-23" d="M476.1712,361.675a1.2946,1.2946,0,0,0-.5651-.7346q-.1469-.0618-.2937-.1242a.93.93,0,0,0-.49-.0217.6048.6048,0,0,0-.31.084.9223.9223,0,0,0-.3956.2539,1.2644,1.2644,0,0,0-.36.8695,10.4852,10.4852,0,0,0,.0451,1.3052,1.5568,1.5568,0,0,0-.03.3458,1.2767,1.2767,0,0,0,.3642.8791c.0835.0648.1677.13.2515.1947a.928.928,0,0,0,.4624.1474.63.63,0,0,0,.33,0,.9286.9286,0,0,0,.4624-.1474,1.339,1.339,0,0,0,.5713-.7432,3.7175,3.7175,0,0,0-.0423-2.3085Z" transform="translate(-86 -153)"/><path class="cls-23" d="M475.6965,358.3825l-.0318-.0107a.3459.3459,0,0,0,.0646.0237l-.0121-.0059Z" transform="translate(-86 -153)"/><path class="cls-23" d="M475.1026,358.23a.1582.1582,0,0,0,.0826.0121c-.0177-.0025-.0414-.007-.0663-.0118Z" transform="translate(-86 -153)"/><path class="cls-23" d="M474.4952,358.2285l-.0358.007a.2388.2388,0,0,0,.0521-.0081l-.0149.0007Z" transform="translate(-86 -153)"/><path class="cls-23" d="M477.0951,358.9845c.0155-.0007.0282-.01.0432-.0114C477.0823,358.98,477.0123,358.99,477.0951,358.9845Z" transform="translate(-86 -153)"/><path class="cls-23" d="M477.7435,357.93a1.4029,1.4029,0,0,0-.6247-.7512,3.8523,3.8523,0,0,0-2.1951-.68,3.1193,3.1193,0,0,0-2.468.9783.7257.7257,0,0,0-.1861.7047l.0385.0936.0127-.0073a.4537.4537,0,0,0,.22.3107.7578.7578,0,0,0,.7055.0719.9134.9134,0,0,0,.1623-.0734l.0024-.0025c.0789-.03.1652-.0667.2334-.0974.0062-.003.0013-.003.0059-.0055a1.7339,1.7339,0,0,1,.22-.0707,4.4526,4.4526,0,0,1,.4316-.1347c.0142-.0032.0957-.0184.1571-.03-.04.0021-.0656,0,.0358-.007l.03-.0063-.0142.0052c.0425-.0034.0847-.0073.127-.0093a3.7251,3.7251,0,0,1,.4641.0115l-.0107-.0048.027.0051.0042,0c.0687.0052.0735.0092.0621.0114l.0187.003c.0933.018.1854.04.2767.0667.062.0181.1227.04.1841.06-.0106-.0052-.02-.01-.0188-.014,0-.001.0405.0177.0713.0318.0168.0059.0217.008.0121.0059l.02.0091a3.3057,3.3057,0,0,1,.44.2541l.0391.0261c.0316.0262.0636.0524.0966.0767a1.0335,1.0335,0,0,0,.4154.2009,1.0165,1.0165,0,0,0,.4083.008.6669.6669,0,0,0,.5157-.3019.5152.5152,0,0,0,.0769-.1754c.0113-.049.0359-.349.0057-.0608A1.2255,1.2255,0,0,0,477.7435,357.93Z" transform="translate(-86 -153)"/><path class="cls-23" d="M477.1918,358.9663l-.0439.0041-.01.0027Z" transform="translate(-86 -153)"/><path class="cls-22" d="M497.0679,358.3358a.9158.9158,0,0,0-.7736-.9356,1.6613,1.6613,0,0,0-1.1963.2633,3.5483,3.5483,0,0,0-1.3,1.96,4.8308,4.8308,0,0,0,.9706,4.5646.7234.7234,0,0,0,1.0124,0,2.65,2.65,0,0,0-.155-3.8181.9334.9334,0,0,0-.5325-.193,2.87,2.87,0,0,1,.56-1.2261c-.051.0637.0715-.074.068-.07.0725-.0869-.0221.0057.0327-.0323a1.846,1.846,0,0,1,.1639-.0979c.0118-.0064.0123-.0085.0125-.01.0075-.0014.011-.0014.0286-.0056s.0681-.0113.0951-.0166l.0056.0007c.0169.0159.0279.026.0394.0381A.5858.5858,0,0,0,497.0679,358.3358Z" transform="translate(-86 -153)"/><path class="cls-22" d="M496.0992,358.7574c-.007-.006-.015-.0046-.0221-.0114C496.1356,358.8006,496.1261,358.7858,496.0992,358.7574Z" transform="translate(-86 -153)"/><path class="cls-25" d="M488.3714,394.8031c-2.2978,3.4746-6.6426,4.54-10.5624,4.6853-1.9193.0719-4.2755.2665-5.9674-.82a6.8142,6.8142,0,0,1-1.9581-2.28,5.0739,5.0739,0,0,0-1.7955-2.1031.206.206,0,0,0-.3051.1751,5.6653,5.6653,0,0,0,1.12,3.1707,7.5487,7.5487,0,0,0,2.1284,2.4231c1.9221,1.3209,4.5431,1.279,6.7774,1.2371,4.6773-.0874,9.5479-1.4018,12.2847-5.4815C490.81,394.7422,489.0777,393.7347,488.3714,394.8031Z" transform="translate(-86 -153)"/><path class="cls-25" d="M487.94,394.5507c-2.3821,3.2888-6.2726,4.2411-10.1307,4.4377-2.3966.1221-4.88.27-6.6474-1.6786-.8241-.909-1.2274-2.3286-2.2493-3.0581-1.1054-.7892-1.7655-.3883-1.5911,1.0033a8.307,8.307,0,0,0,4.4771,5.7737c4.4431,1.9714,11.6031.8425,15.5713-1.82,1.0929-.7334,3.9123-2.7426,3.3015-4.3848a1.5733,1.5733,0,0,0-2.6532-.374c-.4682.4435.24,1.15.7071.7071l.1324,1.4422-.485.5119a6.1591,6.1591,0,0,1-1.5075,1.2341,12.7269,12.7269,0,0,1-2.9691,1.4609,20.8075,20.8075,0,0,1-6.4656.9917c-3.1219.0518-5.972-.305-7.8752-3.0767-.5055-.7361-1.6683-2.9718-.2862-1.38a23.331,23.331,0,0,0,1.6248,2.2121c2.3121,2.1235,6.3044,1.6283,9.15,1.2465,3.5015-.47,6.6529-1.8349,8.76-4.7439C489.1812,394.5335,488.314,394.0339,487.94,394.5507Z" transform="translate(-86 -153)"/><path class="cls-25" d="M454.574,444.1991a20,20,0,0,0-.5186-3.957c-.6206-2.7918-1.6461-5.4728-2.5354-8.185-1.6168-4.93-2.5088-9.9714-.4561-14.9134.1546-.372-.4054-.5381-.6074-.2561-2.9159,4.0617-1.8717,9.7573-.5673,14.2314.7842,2.69,1.7771,5.3167,2.4,8.0535a25.0914,25.0914,0,0,1,.6247,4.373c.0651,1.3561-.2325,2.7087.2458,3.9976a.3079.3079,0,0,0,.5085.1345A4.5688,4.5688,0,0,0,454.574,444.1991Z" transform="translate(-86 -153)"/><path class="cls-25" d="M501.6665,460.0627q-.1128-2.34-.2259-4.6808c-.15-3.11-.3735-6.2288-.3666-9.3439.0134-5.9484,1.3443-11.836,1.0586-17.79a20.79,20.79,0,0,0-2.1256-8.8747.3168.3168,0,0,0-.5766.2429c1.7217,5.5118,1.5214,11.0786.922,16.7552-.3145,2.9759-.6909,5.9533-.7486,8.9487-.0581,2.9937.1527,5.9921.2916,8.9812q.121,2.61.2423,5.221.0587,1.26.1172,2.5206a4.3418,4.3418,0,0,0,.39,2.2478.535.535,0,0,0,.9146,0,3.0534,3.0534,0,0,0,.2286-1.7076Q501.7275,461.3229,501.6665,460.0627Z" transform="translate(-86 -153)"/><path class="cls-26" d="M491.1675,435.9588c-1.6382-.04-2.9469.7822-4.4293,1.3249a11.4925,11.4925,0,0,1-4.3461.5965c-3.1336-.11-5.7694-1.9961-8.6785-2.912a10.1934,10.1934,0,0,0-4.6828-.3943c-1.7415.28-3.2463,1.2135-4.948,1.6223-1.9163.4607-3.6152-.2419-5.4565-.68-.8142-.194-2.7033-.4779-2.9595.7578-.6571,3.1715,5.6586,4.686,7.8455,4.78,2.18.0937,3.88-1.004,5.9442-1.3745a6.7432,6.7432,0,0,1,4.4283,1.1744c3.31,1.8343,6.1456,3.9391,10.11,3.9913,3.5032.0457,8.9182-1.503,9.848-5.3742A2.8106,2.8106,0,0,0,491.1675,435.9588Z" transform="translate(-86 -153)"/><path class="cls-25" d="M491.2573,350.2269a124.0392,124.0392,0,0,0-18.51-5.7234,61.97,61.97,0,0,0-9.3229-1.2666,42.5668,42.5668,0,0,0-4.7524-.0047,16.9592,16.9592,0,0,0-4.5184.6139.3681.3681,0,0,0,.0975.7194c1.5717.0912,3.1817-.1831,4.7607-.1883,1.4727-.0047,2.945.0464,4.4126.1675a61.0281,61.0281,0,0,1,9.4056,1.6c6.1457,1.498,12.0019,3.6908,17.9657,5.7562C491.8618,352.27,492.2862,350.6179,491.2573,350.2269Z" transform="translate(-86 -153)"/><path class="cls-25" d="M407.2272,408.0083a3.5589,3.5589,0,0,0-2.3913,1.2381,13.3932,13.3932,0,0,0-1.8507,2.02,12.772,12.772,0,0,0-1.3588,2.2474,6.7488,6.7488,0,0,0-.841,2.6841.5507.5507,0,0,0,1.0184.2757,9.47,9.47,0,0,0,.4666-1.1947c.1456-.3769.2979-.7473.477-1.11a11.9542,11.9542,0,0,1,2.9854-3.8571c.6363-.55,1.4461-.9508,1.8251-1.7272A.3884.3884,0,0,0,407.2272,408.0083Z" transform="translate(-86 -153)"/><circle class="cls-27" cx="245.6931" cy="535.5234" r="11.2452"/><circle class="cls-27" cx="355.4988" cy="535.5234" r="11.2452"/><path class="cls-28" d="M317.361,605.9487s-14.8832,15.5447-14.8832,38.6965,8.2684,38.3659,40.681,38.3659H453.6259c5.2919,0,7.2764-9.5915,0-9.5915H344.4817c-18.5214,0-32.7431-13.56-31.751-30.0973s16.8677-37.7044,15.8755-37.3736S317.361,605.9487,317.361,605.9487Z" transform="translate(-86 -153)"/><path class="cls-28" d="M302.8086,488.5361c-.065.0539-.1217.118-.1824.1775-8.2067-5.5529-26.0438-17.7267-29.5842-21.0144-2.9286-2.7193-6.6149,2.3155-4.3,4.3s25.467,21.4981,29.7667,25.7978,8.93,107.8211,11.5758,110.7978,145.1949,5.2917,148.5022,4.63S484.4475,491.148,484.3847,490.19,304.793,486.8825,302.8086,488.5361ZM442.421,501.5518a22.955,22.955,0,0,0,.1247-3.5986c18.1371.3043,30.5939.5049,30.5939.5049L471.0975,508.83a4.1585,4.1585,0,0,0-.9345-.1433c-9.4668-.3257-18.9878-.0666-28.473.0147.0308-.2506.0644-.5006.0948-.7514C442.0436,505.823,442.23,503.6861,442.421,501.5518Zm-6.4279-3.7088a60.77,60.77,0,0,0-1.1589,7.7232c-.1525,1.0562-.2874,2.1151-.4289,3.173q-14.4338.0236-28.8673.0482c-1.82.0028-3.6405.0186-5.4607.026.0021-.9089.0222-1.8166.0107-2.7262-.0318-2.4955.2716-6.0172-.4744-8.8721C412.4915,497.4426,425.0237,497.6574,435.9931,497.843Zm-43.4662-.7532c-.5064,2.3348-.26,5.0018-.2952,7.2126-.0239,1.5168-.0731,3.0327-.1239,4.549q-14.5213.0963-29.0426.24c-.3235-4.1928-.6787-8.3829-1.1421-12.5632C371.7805,496.715,382.19,496.9052,392.5269,497.09Zm-37.3691-.691c0,.0155-.0047.03-.0044.0451.0455,4.2335.2079,8.47.4334,12.7059q-6.9774.0489-13.9556.0724-4.8909.0107-9.782.0216c-.1642-1.2435-.3216-2.4883-.5014-3.73q-.4623-3.1953-.9249-6.39c-.1605-1.1108-.2912-2.1844-.4955-3.2383C337.3093,496.0464,345.9083,496.22,355.1578,496.3988Zm-32.8306-.6852c-.136,3.0111.4688,6.1765.73,9.1128.1315,1.48.2794,2.958.4279,4.4356-3.0467.0057-6.0944-.0182-9.1394.0761a55.6125,55.6125,0,0,0-5.62.2469L307.1847,495.29C310.0671,495.4058,315.355,495.55,322.3272,495.7136Zm-10.6057,41.67-2.39-22.1783c1.1893.0674,2.3871.074,3.5779.111,2.8737.0891,5.7416.11,8.6167.1159q1.301.0032,2.6022.0057c.0169.1591.0332.3183.05.4771q1.1535,10.7144,2.3076,21.4285-7.2086.0032-14.4167.0056C311.9456,537.3486,311.839,537.3737,311.7215,537.3831Zm.81,7.5155q7.3932.0032,14.7867.0056,1.5824,14.4122,3.2407,28.8156-1.1763.0068-2.3521.0157c-4.1826.0286-8.3771-.0731-12.5359.29Zm6.1524,57.0812-2.33-21.6144c3.2186.2339,6.4492.2106,9.6972.2328q2.6493.0178,5.2986.0363c.0422.364.083.7285.1252,1.093q.7023,6.081,1.4041,12.161.372,3.219.7436,6.4384c.0744.6349.153,1.2818.2666,1.9164Zm14.2908-83.9193q-.1638-1.3021-.3254-2.6042l4.6734.0106q9.3231.0207,18.6477.0229c.4967,7.2912,1.1482,14.5771,1.7807,21.8412l-11.1382.0043-11.2249.0045Q334.1886,527.6993,332.975,518.0605Zm5.4434,43.9947q-1.03-8.5761-2.0968-17.1475l22.1125.0085q1.2717,14.2092,2.7578,28.3982c-5.7258.1271-11.4516.2518-17.1778.3134-1.4022.0152-2.8046.0183-4.2068.0285Q339.1113,567.8558,338.4184,562.0552Zm4.6871,40.3476c.2016-2.4756-.5141-5.3037-.7662-7.4409l-1.309-11.0884c-.1249-1.0581-.2542-2.116-.38-3.1742,7.1156.0507,14.2306.202,21.3451.3528.075.693.14,1.3868.2161,2.08q.661,6.05,1.39,12.0923.3628,3.0219.737,6.0426c.0614.4926.11.9982.1592,1.5067ZM363.94,520.7413q-.2034-2.6047-.3917-5.2107c2.0288.0131,4.0581.0089,6.0868.0328,7.4086.0874,14.8162.1377,22.224.1933-.26,7.1334-.6549,14.2634-.7345,21.4024-.0007.0532,0,.1064,0,.1591q-12.8923.0055-25.7848.01C364.8544,531.8009,364.3721,526.2732,363.94,520.7413Zm3.9261,43.1634q-.99-9.4869-1.852-18.9857,12.5787.0053,25.1571.01c.1874,9.3757.8255,18.7371,1.4209,28.0972-6.6133-.0232-13.2284-.0521-19.8383.0529-1.29.02-2.58.0538-3.8707.0787C368.5335,570.0744,368.1886,566.9909,367.8664,563.9047Zm25.8419,38.2766q-.0036.5489-.0109,1.0983l-21.19-.3673c-.0613-.4277-.1258-.8574-.1809-1.2906q-.3392-2.6654-.6747-5.3312-.6663-5.3322-1.3056-10.6683c-.1785-1.47-.3476-2.9425-.5229-4.4138,7.7544.1441,15.5133.1785,23.273.1785.214,3.849.3963,7.7.5046,11.5538q.09,3.1975.11,6.3967Q393.7179,600.7594,393.7083,602.1813Zm31.1335-16.2829c-.0562,3.7855-.163,7.575-.5482,11.3434q-.2492,2.4382-.7281,4.8406c-.1132.57-.2449,1.1408-.3536,1.7086l-21.1551-.3666c-.0085-.5423-.0216-1.0808-.0205-1.5985q.0059-2.8439-.0544-5.6872c-.0753-3.6731-.2236-7.3447-.4111-11.0136-.0637-1.2484-.1515-2.4953-.2237-3.7431,7.8592-.0218,15.7181-.0584,23.5731-.0567Q424.8731,583.6084,424.8418,585.8984ZM426.28,563.42c-.5246,3.1981-.8359,6.3988-1.0378,9.6055q-12.1992.0084-24.3986.0165c-.2262-3.43-.46-6.86-.6741-10.2912-.3713-5.9343-.6784-11.8743-.81-17.8193q15.0795.0063,30.159.0116C428.5237,551.1194,427.2937,557.2414,426.28,563.42Zm-18.4954-26.1083q-4.2374.0016-8.4748.0035c.0557-6.247.3306-12.4892.569-18.7313.0353-.92.0529-1.8379.0815-2.7569q16.7463.1029,33.4951.13c-.0681.5236-.1338,1.048-.2032,1.5714-.8747,6.5914-1.736,13.1846-2.6257,19.7747Zm44.5183,66.983-20.9192-.3624c.022-.1211.045-.2422.0669-.3626a83.6534,83.6534,0,0,0,1.2128-11.3114c.1623-3.6306.16-7.2676.181-10.9035,7.9966.0528,16.0009.1256,23.9886-.0707Zm6.1391-31.1823c-.0645-.0042-.12-.0211-.1858-.0232-8.4013-.2433-16.8243-.1211-25.234-.0821.0494-1.0692.1093-2.1379.1927-3.2059.5775-7.4067,2.3126-14.7021,3.3824-22.0468.1362-.9354.2613-1.8724.3926-2.8085q7.3473.0028,14.6944.0057c2.876.0011,5.7616.0679,8.636-.023,1.2346-.0389,2.4693-.11,3.7034-.1675Zm6.556-35.5824c-1.2-.0513-2.3989-.1087-3.5983-.163-2.6362-.1193-5.2777-.0736-7.9163-.0725q-7.7286.0025-15.4575.0059c.691-5.2923,1.3493-10.59,2.0319-15.8818q.3486-2.7008.7025-5.4012c9.64.1106,19.306.3156,28.9215.0028l-4.2433,21.5543C465.29,537.5613,465.1561,537.537,464.9981,537.53Z" transform="translate(-86 -153)"/><path class="cls-29" d="M263.12,312.2517c-33.2088-6.6418-43.9884,10.2529-45.6421,26.4591s-13.23,17.86-11.2451,33.7355,19.1829,22.1595,36.7122,25.4669,31.0895-7.2762,35.72-13.23-3.6381-15.8755.6615-30.4281S279.6567,315.5591,263.12,312.2517Z" transform="translate(-86 -153)"/><path class="cls-30" d="M182.86,678.8217c-3.3074,2.2049-3.528,10.1427-1.9845,11.9066s21.6084,3.9689,24.9158,3.5279,2.8664-3.9689.22-5.7328S191.46,682.35,191.46,682.35s-.8821-4.8508-1.7641-5.0714S182.86,678.8217,182.86,678.8217Z" transform="translate(-86 -153)"/><path class="cls-31" d="M194.5463,642.22s-12.1271,33.074-11.6861,36.6019,6.6148,4.1894,8.5993,3.5279,21.1672-31.7511,21.1672-31.7511Z" transform="translate(-86 -153)"/><path class="cls-30" d="M263.8574,686.8724c-3.2383,2.3053-3.2156,10.246-1.619,11.9619s21.72,3.3054,25.0122,2.7634,2.7435-4.0548.0448-5.7369-14.7347-5.7254-14.7347-5.7254-1.03-4.8216-1.9184-5.0149S263.8574,686.8724,263.8574,686.8724Z" transform="translate(-86 -153)"/><path class="cls-31" d="M261.199,651.599s.1591,35.2267,1.8019,38.38,7.66,1.6216,9.2895.31,8.7756-37.1373,8.7756-37.1373Z" transform="translate(-86 -153)"/><path class="cls-32" d="M204.0276,486.331a158.2487,158.2487,0,0,0-4.41,58.4307c3.7483,31.7512,5.0713,42.5552,4.63,48.0675s-11.2452,45.8628-11.6861,49.17,17.419,12.1271,20.0648,11.245,21.1674-34.3969,24.0339-51.1544,7.7173-67.25,7.7173-67.25,9.4811,48.5085,11.4656,62.1791,4.63,54.2414,4.63,57.7692,18.08,5.9533,20.0649,3.9688,5.9533-50.2724,5.0713-64.384-16.5369-104.2933-16.5369-104.2933l-37.9249-10.1427Z" transform="translate(-86 -153)"/><path class="cls-30" d="M264.4426,396.59c6.8354,3.5279,7.9379,7.0558,8.82,9.4812s7.0558,26.9,13.23,32.633,21.1674,5.7328,21.1674,5.7328-1.5435,16.7575-2.2049,16.5371-14.9936-2.205-21.8288-4.1894-13.8912-7.7173-13.8912-7.7173-1.1024,35.279,1.7639,43.8781c0,0-31.751,16.978-70.5578-5.7327,0,0,4.19-48.5086,4.6305-57.5489s-6.3944-6.3942-5.9534-14.8831,11.9066-24.3647,25.1363-25.4671,24.6952,6.1739,24.6952,6.1739Z" transform="translate(-86 -153)"/><polygon class="cls-33" points="251.426 264.978 226.951 261.671 220.557 272.254 225.408 278.869 241.945 279.972 248.78 277.767 249.662 272.475 251.426 264.978"/><polygon class="cls-34" points="245.473 276.223 251.426 264.978 252.308 276.885 245.473 276.223"/><polygon class="cls-32" points="239.237 321.251 247.457 318.999 252.308 276.885 245.473 276.223 239.237 321.251"/><path class="cls-35" d="M306.557,425.64l-5.5124,45.2011s24.1531,4.473,24.2542,3.7484c.6615-4.7406,6.1738-44.9807,6.1738-44.9807Z" transform="translate(-86 -153)"/><path class="cls-31" d="M260.0328,458.5489s6.093-.7978,10.8042,1.9845,9.438,8.3328,9.2607,10.1427-.881,3.1227-2.6459,3.3074c0,0-1.1651,3.056-3.3074,2.2049,0,0-1.0665,2.4535-3.5279.4409s-6.2494-5.6983-8.4543-5.9189a18.5565,18.5565,0,0,0-5.6572.8476S256.0639,457.8874,260.0328,458.5489Z" transform="translate(-86 -153)"/><path class="cls-31" d="M240.96,372.1156s-.3307,15.8755-16.2062,17.1984c0,0,16.2062,30.4281,39.6886,7.2763,0,0-13.23-5.2918-7.9376-21.1673,0,0-6.6148-4.3-7.9379-4.63S240.96,372.1156,240.96,372.1156Z" transform="translate(-86 -153)"/><path class="cls-36" d="M261.7968,369.8" transform="translate(-86 -153)"/><path class="cls-30" d="M199.6177,414.7811c3.518-11.0236,16.2063-11.576,18.5215-2.646s0,35.72,5.9532,39.358,31.9493,1.2933,34.9482,5.2919c.9922,1.3229,2.7294,12.7538-.9922,15.8755s-34.6175,1.323-45.2011-1.9844S194.6566,430.3258,199.6177,414.7811Z" transform="translate(-86 -153)"/><path class="cls-31" d="M338.0874,443.7758c-1.6678-2.5944-7.9377-2.4253-9.04-1.7639a2.0138,2.0138,0,0,0-.441,3.087s-3.0869,2.4253-1.5434,4.1892a6.2739,6.2739,0,0,0,.6614,4.19s-1.8,1.9913.882,3.0869,4.8509,1.5434,7.2763.2205S340.0719,446.8628,338.0874,443.7758Z" transform="translate(-86 -153)"/><path class="cls-37" d="M255.2652,382.0127a22.7885,22.7885,0,0,1,1.24-6.59s-6.6146-4.3-7.9377-4.63-7.6071,1.323-7.6071,1.323-.1584,7.2979-5.2072,12.41a7.87,7.87,0,0,0,1.3858.5077,12.8591,12.8591,0,0,0,3.6058.2353,40.24,40.24,0,0,0,10.0339-1.35A20.707,20.707,0,0,0,255.2652,382.0127Z" transform="translate(-86 -153)"/><path class="cls-31" d="M229.0535,344.6641s-4.63-1.6537-5.6226,3.6381,2.9767,9.2608,5.6226,9.2608c0,0,6.6148,22.821,21.8289,21.8288s21.4981-20.5058,22.49-31.42c0,0-11.245-7.2762-12.8988-17.5292C260.4738,330.4423,244.929,344.9949,229.0535,344.6641Z" transform="translate(-86 -153)"/><path class="cls-37" d="M228.9354,346.9971a1.8486,1.8486,0,0,0-2.22.0214.5672.5672,0,0,0,.1336,1.0227c.29.1063.62.0023.8865.0581-.0021-.0005.0719.0253.1007.0351-.0149-.0143-.0233-.0239.0061-.0024l.0075.0066c-.006-.0031-.0107-.0023-.0157-.007l.0034.0032.0123.0038a.2363.2363,0,0,1,.0257.024c.021.0332.0418.0662.062.1.0033.0053.0135.0261.0224.0437.0117.0324.0317.086.0352.0975.0166.055.0306.1106.043.1666.0106.0465.0186.0934.0265.14l.0014.0282c.0035.1183.0122.2352.0094.3535a7.8259,7.8259,0,0,1-.09.97,1.12,1.12,0,0,0-.3407.0965,2.0788,2.0788,0,0,0,.0315,3.6159.8884.8884,0,0,0,1.278-.52,14.7622,14.7622,0,0,0,.5809-2.3907,8.3022,8.3022,0,0,0,.159-2.1611A2.4984,2.4984,0,0,0,228.9354,346.9971Z" transform="translate(-86 -153)"/><path class="cls-37" d="M227.8378,348.1348l-.0013,0C227.8648,348.1616,227.92,348.2084,227.8378,348.1348Z" transform="translate(-86 -153)"/><path class="cls-38" d="M279.8622,348.281c-.702-.9072-2.4057-.8656-3.4175-1.2382a17.8888,17.8888,0,0,1-2.9991-1.498,23.53,23.53,0,0,1-5.153-4.193,24.67,24.67,0,0,1-3.8553-5.4517,22.4357,22.4357,0,0,1-1.2613-2.99,15.6919,15.6919,0,0,0-.9533-2.8516c.0913-.1965.1782-.4022.2651-.6287a.5216.5216,0,0,0-.6376-.6377,5.708,5.708,0,0,0-1.6717.7543c-.5846.4163-1.1143.9107-1.6777,1.3554a43.9165,43.9165,0,0,1-3.6271,2.5513,79.8034,79.8034,0,0,1-7.4574,4.1282c-5.1723,2.5655-10.7183,5.3573-16.5668,5.8087a18.0036,18.0036,0,0,1-4.6411-.1845,15.7989,15.7989,0,0,1-2.3342-.6173c-.7557-.2641-1.4628-.6519-2.236-.8621a.6073.6073,0,0,0-.5866,1.0075,9.0888,9.0888,0,0,0,3.709,1.7445,20.1112,20.1112,0,0,0,4.2548.7016,25.5139,25.5139,0,0,0,9.0982-1.24,64.6968,64.6968,0,0,0,8.6889-3.6652c2.7976-1.3487,5.5724-2.7559,8.2258-4.3732a49.348,49.348,0,0,0,4.1631-2.82c.6337-.481,1.2778-.9681,1.872-1.5a16.8469,16.8469,0,0,0,.4687,1.7822,25.4334,25.4334,0,0,0,1.3185,3.4648,24.9653,24.9653,0,0,0,4.0845,6.26,24.45,24.45,0,0,0,5.7847,4.76,17.9757,17.9757,0,0,0,3.6821,1.71c1.0435.3254,2.9719.6936,3.5468-.6074A.5919.5919,0,0,0,279.8622,348.281Z" transform="translate(-86 -153)"/><path class="cls-39" d="M232.28,350.1009a18.6731,18.6731,0,0,0-1.009-5.0823.844.844,0,0,0-1.0158-.5767.9834.9834,0,0,0-.5468.32.45.45,0,0,0-.0934.144q-.1054.2738-.0333.0483a.3547.3547,0,0,0,0,.494c-.0965-.107.0179.0863.0665.1694a.636.636,0,0,0,.0951.1078c.1617.717.3727,1.423.5173,2.1453a23.0934,23.0934,0,0,1,.3458,2.3185c.0768.7963.111,1.5928.16,2.3908.0257.4137.0508.8363.1032,1.2472a2.2568,2.2568,0,0,0,.2725,1.0684.3825.3825,0,0,0,.5927.0764,4,4,0,0,0,.617-2.392A16.1,16.1,0,0,0,232.28,350.1009Z" transform="translate(-86 -153)"/><path class="cls-39" d="M231.25,357.5209a.2048.2048,0,0,0-.3465-.1433,1.3786,1.3786,0,0,1-.18.1669c-.0685.0549-.002.0169-.0753.0535-.0294.0149-.0554.0311-.0821.0454a2.1926,2.1926,0,0,0-.7946.46c.1364-.1042-.0372.0225-.0742.0469-.0583.0379-.1176.0742-.1785.1081-.0677.038-.1371.0711-.2064.1055l-.0017.0009c-.0265.0115-.055.0218-.08.0309-.13.0472-.2635.0916-.396.1317q-.099.03-.2.0529c-.03.0066-.0595.0129-.0895.0186l-.0488.0088c-.0339.0043-.1152.0162-.1.0141-.03.0038-.0316.0045-.0446.0066a.0987.0987,0,0,0-.0178,0c-.0688.0043-.1373.0113-.2063.0127s-.1368-.007-.2044-.0045a.6666.6666,0,0,0-.3309.1221.3946.3946,0,0,0-.1394.5317.6573.6573,0,0,0,.2228.26,1.3329,1.3329,0,0,0,.2916.1061,2.7876,2.7876,0,0,0,.5738.1,2.6725,2.6725,0,0,0,1.0536-.1256,3.5541,3.5541,0,0,0,.9314-.4736,1.7109,1.7109,0,0,0,.4986-.51,1.248,1.248,0,0,0,.1379-.4529A2.8923,2.8923,0,0,0,231.25,357.5209Z" transform="translate(-86 -153)"/><path class="cls-21" d="M230.0081,354.6867c.9049-3.7493,8.3313.8362,15.9249.3906s9.8706-3.328,12.5652-.4065,8.4282,2.487,10.5834,5.3423-2.76,20.7033-18.3934,19.6332S228.1429,362.4164,230.0081,354.6867Z" transform="translate(-86 -153)"/><path class="cls-39" d="M259.5316,362.3161a.3539.3539,0,0,0-.5482-.07c.0417-.0468.1038-.0311-.0487-.0285-.11.0017-.2155-.02-.3243-.0265a6.576,6.576,0,0,0-.8637.03c-.5488.0447-1.0915.0941-1.6429.0934a15.5915,15.5915,0,0,1-3.255-.3455,15.8054,15.8054,0,0,1-3.0759-.985c-.5039-.2236-.9935-.4683-1.4787-.7293a3.4238,3.4238,0,0,0-1.2825-.5507.08.08,0,0,0-.0761.1,2.8362,2.8362,0,0,0,1.0943,1.2625,12.6878,12.6878,0,0,0,1.6141,1.0955,14.0232,14.0232,0,0,0,3.6609,1.43,13.87,13.87,0,0,0,3.96.3411,4.0342,4.0342,0,0,0,1.8872-.424C259.5083,363.2873,259.8218,362.7052,259.5316,362.3161Z" transform="translate(-86 -153)"/><path class="cls-39" d="M260.4013,371.5451a6.008,6.008,0,0,0-1.9742-.164c-.8163-.0232-1.638-.0838-2.454-.1353a35.7782,35.7782,0,0,1-5.533-.74,19.2584,19.2584,0,0,1-4.6188-1.61,27.8075,27.8075,0,0,1-3.8895-2.5778c-.2147-.16-.4608.1427-.3469.3469,1.7067,3.0634,5.4613,4.7758,8.7032,5.6449a33.0912,33.0912,0,0,0,6.0185.9255c1.3357.1038,3.8484.3363,4.2679-1.3847A.255.255,0,0,0,260.4013,371.5451Z" transform="translate(-86 -153)"/><path class="cls-40" d="M265.093,397.0442a.5609.5609,0,0,0-.5325-.4058c-1.4391.1687-2.1695,1.6862-3.1376,2.6193a16.7172,16.7172,0,0,1-3.4859,2.5636,18.9558,18.9558,0,0,1-8.5141,2.3415c-6.7243.2327-13.066-2.9464-18.099-7.1891a24.9371,24.9371,0,0,1-3.9815-3.9758,24.5948,24.5948,0,0,1-1.4535-2.1734c-.36-.6018-.6226-1.4814-1.3811-1.6484a.158.158,0,0,0-.1536.0405c-.86,1.0043.5169,3.1524,1.0768,4.0578a25.3746,25.3746,0,0,0,3.3448,4.17,30.785,30.785,0,0,0,8.9895,6.38c6.3357,2.9759,13.56,3.59,20.02.636a18.7025,18.7025,0,0,0,4.676-3.0451C263.557,400.4359,265.6481,398.7013,265.093,397.0442Z" transform="translate(-86 -153)"/><path class="cls-40" d="M260.6292,457.3042a5.0234,5.0234,0,0,0-1.6135-2.2681,9.1073,9.1073,0,0,0-3.4315-1.2291,116.1147,116.1147,0,0,0-15.3149-2.5164q-3.975-.384-7.971-.4895c-2.3325-.0613-5.1962.36-7.3457-.7447-1.9918-1.023-2.7733-3.2327-3.1634-5.3035a68.0415,68.0415,0,0,1-.6954-7.6792q-.3369-4.6441-.6735-9.2882a41.6469,41.6469,0,0,0-1.1853-9.03c-.0965-.3215-.66-.3849-.7168,0a35.22,35.22,0,0,0-.0047,7.601c.1778,2.62.3727,5.24.5589,7.8594.1837,2.5829.3537,5.1676.5517,7.75a20.1238,20.1238,0,0,0,.9852,5.4582,7.6928,7.6928,0,0,0,3.045,4.0081c1.853,1.1509,4.1059,1.1607,6.2134,1.1776a113.6838,113.6838,0,0,1,15.3252,1.1347q3.7808.5457,7.5193,1.3437c1.1319.2417,2.2622.4952,3.3849.777a3.3783,3.3783,0,0,1,2.7015,1.9234,14.9345,14.9345,0,0,1-.8569,12.5477,3.4888,3.4888,0,0,1-2.4292,2.1153,25.77,25.77,0,0,1-3.7483.2793q-3.907.2045-7.82.2739c-5.2156.0936-10.4343-.0029-15.6456-.2275-2.81-.1211-5.6236-.2634-8.4279-.4814a22.0758,22.0758,0,0,1-6.6815-1.3,9.4128,9.4128,0,0,1-4.9-4.7864c-1.281-2.4957-2.4139-5.0653-3.7013-7.5592-.1526-.2958-.6641-.0905-.5457.23q1.3484,3.6495,2.8653,7.238a11.1941,11.1941,0,0,0,3.696,5.0083c3.4944,2.4988,8.2527,2.6506,12.37,3.0281,5.4341.4983,10.8908.7127,16.3466.7338q3.9128.0154,7.8243-.1043c2.66-.0808,5.37-.1042,8.0164-.4017a5.22,5.22,0,0,0,2.8794-1.0736,8.1872,8.1872,0,0,0,1.931-2.8272,17.5208,17.5208,0,0,0,1.6518-6.5488A15.8542,15.8542,0,0,0,260.6292,457.3042Z" transform="translate(-86 -153)"/><path class="cls-40" d="M271.7685,426.1564c-.6738-2.4269-1.8465-5.2279-4-6.691-.2794-.19-.5831.1738-.4394.4394.65,1.2018,1.4292,2.3143,1.9969,3.5633a17.6477,17.6477,0,0,1,1.1707,3.7574,27.6273,27.6273,0,0,1,.304,8.0723c-.2956,3.1943-1.0182,6.3285-1.5845,9.4805-.2763,1.5371-.5155,3.0831-.69,4.635a13.7772,13.7772,0,0,0-.1317,2.3791,21.9993,21.9993,0,0,0,.43,2.4836c.0584.3275.6262.34.6737,0,.1234-.881.3932-1.7248.5251-2.6023.1127-.7508.1687-1.5065.2561-2.26.2013-1.7371.5157-3.4589.8215-5.18a83.4426,83.4426,0,0,0,1.416-9.778A25.7071,25.7071,0,0,0,271.7685,426.1564Z" transform="translate(-86 -153)"/><path class="cls-40" d="M270.3511,491.6793a10.37,10.37,0,0,0-2.967,1.4741,26.563,26.563,0,0,1-3.14,1.4759,31.8158,31.8158,0,0,1-6.6131,1.7245c-2.4713.393-4.9994.5177-7.4933.6972-2.5419.1831-5.087.33-7.6352.3895a74.9739,74.9739,0,0,1-27.4513-4.2363,102.7876,102.7876,0,0,1-13.9314-6.5545.4061.4061,0,0,0-.41.7008,53.7961,53.7961,0,0,0,12.3021,6.7561,69.7506,69.7506,0,0,0,13.4436,3.9326c10.0425,1.879,20.3062,1.4156,30.4177.2978a32.6775,32.6775,0,0,0,7.7772-1.648,27.1033,27.1033,0,0,0,3.5149-1.5815,6.9892,6.9892,0,0,0,3.0193-2.3436A.7475.7475,0,0,0,270.3511,491.6793Z" transform="translate(-86 -153)"/><path class="cls-37" d="M335.5745,447.199a1.5147,1.5147,0,0,0-.7695-.4723,14.3971,14.3971,0,0,0-1.5661-.4612,10.6155,10.6155,0,0,0-1.66-.2268,3.0842,3.0842,0,0,0-1.5754.3046.2665.2665,0,0,0,0,.457,9.5807,9.5807,0,0,0,2.5787.7953c.4393.1059.8751.2183,1.305.3581.3529.1148.6214.2214.8982.3011a.5224.5224,0,0,0,.3393.1344.5514.5514,0,0,0,.4807-.2757A.8472.8472,0,0,0,335.5745,447.199Z" transform="translate(-86 -153)"/><path class="cls-37" d="M334.9876,451.3589a3.1472,3.1472,0,0,0-1.2639-.0933,10.2865,10.2865,0,0,1-1.244.0187c-.4175-.0222-.8373-.0473-1.2514-.1054a5.8961,5.8961,0,0,0-.7677-.0517c-.1891-.001-.4261.0567-.5879.0487a.2444.2444,0,0,0-.1713.4133c.0768.0616.1928.219.3055.3068a3.2938,3.2938,0,0,0,.5688.3563,4.9628,4.9628,0,0,0,1.1943.37,6.4716,6.4716,0,0,0,2.6192.0256,1.4687,1.4687,0,0,0,1.0271-.6718C335.5485,451.6706,335.3005,451.4741,334.9876,451.3589Z" transform="translate(-86 -153)"/><path class="cls-37" d="M331.0316,456.3044a.04.04,0,0,0-.0394.04.04.04,0,0,0,.0394.0394l.2207-.0112a.0282.0282,0,0,0,0-.0564C331.1787,456.3119,331.105,456.3083,331.0316,456.3044Z" transform="translate(-86 -153)"/><path class="cls-41" d="M223.0567,499.9308a8.3426,8.3426,0,0,0-.9937.5385,5.5925,5.5925,0,0,0-.7551.9938c-.4992.6976-1.03,1.37-1.5819,2.0262a32.78,32.78,0,0,1-3.607,3.66,30.1452,30.1452,0,0,1-4.1494,3.0293,17.8807,17.8807,0,0,1-2.5884,1.3191c-.6531.2616-1.3331.47-1.9833.7412a87.6365,87.6365,0,0,1,2.5014-14.5049.2256.2256,0,0,0-.4348-.12c-3.2895,8.7223-3.7868,18.4888-3.1922,27.7094a124.6479,124.6479,0,0,0,1.7378,13.8992c.8568,4.7942,2.086,9.502,3.03,14.2764a50.1337,50.1337,0,0,1,.6706,14.9409c-.5093,4.94-1.0471,9.8826-1.7051,14.8053-1.3,9.7235-3.0964,19.3815-5.278,28.9446q-1.8386,8.06-4.1191,16.0123-1.1487,3.9705-2.3779,7.9189c-.7941,2.5634-1.8282,5.0767-2.0371,7.7646-.0339.4373.5689.5324.777.21a27.3012,27.3012,0,0,0,2.7014-6.8631c.7215-2.3013,1.4156-4.61,2.0657-6.9327q1.974-7.05,3.6814-14.17c2.2787-9.5575,4.0692-19.2152,5.4506-28.9426.67-4.7211,1.261-9.46,1.7017-14.2083a73.1858,73.1858,0,0,0,.29-15.196c-.56-4.7705-1.8744-9.4094-2.87-14.0982a138.4062,138.4062,0,0,1-2.3082-14.2053,96.681,96.681,0,0,1-.4046-15.9261c.0125-.2085.0415-.4137.056-.6219,1.628.26,3.4333-.5923,4.812-1.34a30.7877,30.7877,0,0,0,4.5726-3.0982,32.7361,32.7361,0,0,0,3.9156-3.7223c.6-.6728,1.1649-1.3755,1.7063-2.0959a10.1429,10.1429,0,0,0,.7573-1.0787,3.4231,3.4231,0,0,0,.2553-1.4367C223.3769,500.0016,223.2213,499.8231,223.0567,499.9308Z" transform="translate(-86 -153)"/><path class="cls-41" d="M245.328,524.4269c-.0272-1.0776-.0632-2.1545-.0947-3.2316q-.1-3.4109-.2-6.8221l-.1944-6.6427c-.0314-1.0771-.0574-2.1547-.1-3.2315-.0342-.8508.1119-1.9169-.4751-2.601a.1239.1239,0,0,0-.1751,0,3.799,3.799,0,0,0-.3672,2.4213c.002,1.0776.0215,2.1544.0363,3.2317l.0937,6.8222q.0447,3.2509.0892,6.5019a3.1152,3.1152,0,0,1-.3617-.2992,7.5227,7.5227,0,0,1-1.4665-2.1418,28.2607,28.2607,0,0,1-1.5424-5.56c-.3982-1.8185-.7222-3.6543-.96-5.5-.1164-.9033-.2235-1.8079-.3093-2.7147a19.658,19.658,0,0,0-.2846-2.757.74.74,0,0,0-.5313-.5314,1.0991,1.0991,0,0,0-.4043,0,.7807.7807,0,0,0-.5585.7335,14.2475,14.2475,0,0,0,.1588,3.0648q.1429,1.4716.36,2.9336.4526,3.039,1.1881,6.0264a21.1821,21.1821,0,0,0,1.8326,5.4579c.5539.9716,1.6353,2.5249,2.8981,2.6542q.0134,1.0035.0277,2.0069a7.1821,7.1821,0,0,0,.3741,3.08.4135.4135,0,0,0,.71,0A6.6936,6.6936,0,0,0,245.328,524.4269Z" transform="translate(-86 -153)"/><path class="cls-41" d="M270.0417,503.6172c-.3137-.1881-.587-.4361-.9088-.6191-.3121-.1771-.6466-.3082-.9651-.4727a11.28,11.28,0,0,1-1.8029-1.12,13.5312,13.5312,0,0,1-1.5754-1.4744c-.24-.26-.4656-.535-.7146-.7864-.1509-.1525-.4763-.5455-.7229-.3184-.2514.2317-.06.667.04.9312a4.7574,4.7574,0,0,0,.5461,1.0152,9.0673,9.0673,0,0,0,1.5763,1.76,9.171,9.171,0,0,0,1.9487,1.2963,4.7862,4.7862,0,0,0,1.1866.44,3.6369,3.6369,0,0,0,.6475.0729c.1936-.0024.3792-.0633.5693-.0764A.3508.3508,0,0,0,270.0417,503.6172Z" transform="translate(-86 -153)"/><path class="cls-40" d="M195.4192,683.1779a.8593.8593,0,0,0-.7936-.211c.0507-.0066.101-.0134.1517-.02-.0684.0092-.1168.0152-.1552.02h-.0011c-.0249.0039-.05.0075-.0747.0106l.066-.0088a1,1,0,0,0-.3111.1057c-.0242.01-.0484.0211-.0728.0314a.7851.7851,0,0,0-.1362.0707c-.0958.0654-.1889.1355-.2829.2036-.264.19-.5137.4045-.763.6144-.1628.1373-.3141.28-.4635.432-.1369.1392-.2739.2765-.3976.4276a2.7064,2.7064,0,0,0-.2964.3916,1.9715,1.9715,0,0,0-.1443.3293.8314.8314,0,0,0-.0061.1073,1.2914,1.2914,0,0,0-.0606.3913.8035.8035,0,0,0,1.01.769c.0733-.0267.14-.0668.21-.0975a2.896,2.896,0,0,0,1.1426-.9423c.1451-.1549.2962-.299.4555-.44.4313-.3811,1.0131-.7892,1.1342-1.3868A.8464.8464,0,0,0,195.4192,683.1779Z" transform="translate(-86 -153)"/><path class="cls-40" d="M199.7071,686.7927c-.0232.03-.048.0591-.0715.089-.03.0377-.0567.0771-.0862.1152Q199.6283,686.8951,199.7071,686.7927Z" transform="translate(-86 -153)"/><path class="cls-40" d="M200.1771,685.944a.851.851,0,0,0-.396-.8459,1.0642,1.0642,0,0,0-1.1156.0937,2.9687,2.9687,0,0,0-.42.28,5.1157,5.1157,0,0,0-.5587.4679q-.1834.1833-.36.3733c-.2576.276-.4915.5659-.7227.8649-.129.1672-.26.3314-.375.5088a2.1781,2.1781,0,0,0-.187.4279c-.0332.049-.0848.0725-.11.132a.8592.8592,0,0,0-.0614.4673.9888.9888,0,0,0,.2478.5177,1.0083,1.0083,0,0,0,.47.2862,1.05,1.05,0,0,0,.7873-.1021,2.1322,2.1322,0,0,0,.575-.4659c.2906-.3133.5579-.6637.8181-1.0017l-.1713.2218c.3379-.4366.6981-.854,1.0383-1.2886.1207-.1546.2427-.3071.3517-.4708A1.1029,1.1029,0,0,0,200.1771,685.944Z" transform="translate(-86 -153)"/><path class="cls-40" d="M276.21,691.2442l.007.0017a.3372.3372,0,0,0-.1606-.0429c.01,0,.0174.007.0277.0077.0363.0127.0768.0053.1114.026Z" transform="translate(-86 -153)"/><path class="cls-40" d="M276.2172,691.2459c.0167.01.0146.01-.007-.0017a.4389.4389,0,0,0-.1259-.0335.8535.8535,0,0,0-.2835-.0665,1.73,1.73,0,0,0-.4092.0454,2.9355,2.9355,0,0,0-.7046.2549,5.35,5.35,0,0,0-1.0773.7948,8.2936,8.2936,0,0,0-.77.82,4.0062,4.0062,0,0,0-.4438.632,1.2864,1.2864,0,0,0,.21,1.5318,1.0207,1.0207,0,0,0,1.2074.1557,1.1913,1.1913,0,0,0,.3576-.357.7506.7506,0,0,0,.0673-.2043l.0114-.0156c.1283-.1612.2589-.3207.3848-.4845q-.0861.1114-.1722.2233c.3309-.4254.7171-.7881,1.0778-1.185q.1342-.1473.2748-.2891a3.4792,3.4792,0,0,0,.367-.4538,2.4518,2.4518,0,0,0,.2041-.3005,1.6468,1.6468,0,0,0,.1314-.2866.6941.6941,0,0,0,0-.1518A.4956.4956,0,0,0,276.2172,691.2459Z" transform="translate(-86 -153)"/><path class="cls-40" d="M282.0985,693.5975a.5949.5949,0,0,0-.0024-.1888.3856.3856,0,0,0-.0616-.1926l.0287.03a.3138.3138,0,0,0-.15-.2131.8254.8254,0,0,0-.3467-.0736.4306.4306,0,0,0-.1946.03c-.0363.0112-.0319.0145.0127.0091q.1-.0032-.05.0117a1.6219,1.6219,0,0,0-.6779.3454,11.2113,11.2113,0,0,0-.8735.735c-.2521.2391-.489.4873-.7245.743-.3939.4271-.8463.8761-.705,1.5121a.7794.7794,0,0,0,.2937.4257.9146.9146,0,0,0,.4969.1761,1.2788,1.2788,0,0,0,.911-.4265c.1335-.1242.2519-.2676.3753-.4018.2573-.2785.5007-.5631.7387-.8585a5.18,5.18,0,0,0,.709-1.0254c.0374-.0821.0768-.163.1131-.2452a.934.934,0,0,0,.09-.3327C282.0694,693.8317,282.0964,693.6123,282.0985,693.5975Z" transform="translate(-86 -153)"/><path class="cls-29" d="M250.253,343.28a4.8694,4.8694,0,0,0-.8965-.3543,5.704,5.704,0,0,0-1.7344-.2141,4.0276,4.0276,0,0,0-3.2652,1.4213.62.62,0,0,0,.6934.9021,5.9826,5.9826,0,0,0,.7447-.2626c.0117-.005.0958-.04.1061-.0455.0419-.0159.0835-.032.1256-.0468.1031-.037.2065-.0729.3108-.1059a5.0485,5.0485,0,0,1,.6812-.1617c.02-.0035.0244-.0046.0244-.0053l.0437-.0035c.0549-.0047.1095-.01.1643-.0141q.1852-.0126.371-.0117.1655.001.33.0127c.0552.0039.11.01.1649.0145a.0936.0936,0,0,0,.0241.001l.0375.0071a5.307,5.307,0,0,1,.68.1626c.1048.0331.2079.0708.31.11.0329.013.0884.0369.0983.0408l.1094.0518a1.3393,1.3393,0,0,0,1.0409.1215.6612.6612,0,0,0,.4783-.6279A1.2065,1.2065,0,0,0,250.253,343.28Z" transform="translate(-86 -153)"/><path class="cls-29" d="M248.6214,348.1282a1.0356,1.0356,0,0,0-.0143-.1544,1.0039,1.0039,0,0,0-.2273-.4756,1.5124,1.5124,0,0,0-.8843-.5052,1.3691,1.3691,0,0,0-1.0129.2768,1.4438,1.4438,0,0,0-.505.8846q-.1349.8349-.27,1.67a1.044,1.044,0,0,0,.05.5465,1.0223,1.0223,0,0,0,.2313.4841,1.539,1.539,0,0,0,.9.5138,1.39,1.39,0,0,0,1.03-.2814q.1233-.1255.2464-.251c.0113-.0151.01-.0352.0209-.05a1.3277,1.3277,0,0,0,.3864-.7535q.0661-.6356.1324-1.27A1.5019,1.5019,0,0,0,248.6214,348.1282Z" transform="translate(-86 -153)"/><path class="cls-29" d="M263.195,346.3473a4.8812,4.8812,0,0,1,.9583-.1056,5.7024,5.7024,0,0,1,1.7294.25,4.0287,4.0287,0,0,1,2.7758,2.231.62.62,0,0,1-.9065.6877,5.9491,5.9491,0,0,1-.6494-.45c-.01-.0077-.0818-.0638-.09-.0717-.0363-.0263-.0721-.0529-.1089-.0782-.09-.0628-.18-.1248-.2719-.1842a5.054,5.054,0,0,0-.6146-.3352l-.0221-.0115-.0413-.015c-.0517-.0188-.1029-.0386-.1548-.0569q-.1753-.0611-.3547-.1089-.16-.0424-.3219-.0747c-.0542-.0107-.1085-.02-.1628-.0294l-.0236-.0054-.038-.003a5.2968,5.2968,0,0,0-.699-.0223c-.11.0044-.2193.0135-.3285.0246-.0351.004-.0952.0124-.1058.0136l-.119.0211a1.34,1.34,0,0,1-1.0362-.1569.6608.6608,0,0,1-.2959-.7316A1.2065,1.2065,0,0,1,263.195,346.3473Z" transform="translate(-86 -153)"/><path class="cls-29" d="M263.4922,351.4543a1.0508,1.0508,0,0,1,.0545-.1451,1.0052,1.0052,0,0,1,.3445-.3991,1.5141,1.5141,0,0,1,.9863-.2544,1.3693,1.3693,0,0,1,.9041.5339,1.4439,1.4439,0,0,1,.2543.9862q-.09.8409-.18,1.6822a1.0465,1.0465,0,0,1-.1926.5141,1.0239,1.0239,0,0,1-.3506.4059,1.5379,1.5379,0,0,1-1.0035.2587,1.39,1.39,0,0,1-.92-.5428q-.0858-.1536-.1714-.3071c-.0072-.0175-.0007-.0366-.0071-.0542a1.3274,1.3274,0,0,1-.1743-.8285q.1037-.6307.207-1.2606A1.5007,1.5007,0,0,1,263.4922,351.4543Z" transform="translate(-86 -153)"/><path class="cls-32" d="M312.3705,443.1092a.8755.8755,0,0,0-1.4555-.3842l-1.7391,2.0279a10.7988,10.7988,0,0,0-1.3847-2.1251.8678.8678,0,0,0-1.4431.3814q-.2757,1.593-.5622,3.1841c-.092.51-.1893,1.0184-.266,1.53a6.2461,6.2461,0,0,0-.145,1.7935c.0852.6067.977.6257,1.2472.163a5.4857,5.4857,0,0,0,.4653-1.5241c.1231-.524.2226-1.0529.3264-1.5807.0688-.3495.1346-.6994.2024-1.0492a8.8714,8.8714,0,0,1,.4757,1.0755.8777.8777,0,0,0,1.4526.3836q.6316-.7361,1.2639-1.4713c0,.3327.0035.6662-.0176.997a13.0219,13.0219,0,0,1-.1532,1.3462c-.0944.5543-.2768,1.1032-.3155,1.6642a.8473.8473,0,0,0,1.5677.4247,6.2105,6.2105,0,0,0,.4508-1.7456c.09-.5592.1589-1.1238.1943-1.6895A16.48,16.48,0,0,0,312.3705,443.1092Z" transform="translate(-86 -153)"/><path class="cls-32" d="M315.4827,443.7212a.5043.5043,0,0,0-.9093-.119,4.8689,4.8689,0,0,0-.4043,1.6188c-.0678.5328-.1359,1.0646-.22,1.5952-.0851.5335-.169,1.0673-.2629,1.6-.1015.5729-.2659,1.1529-.31,1.7328a.7372.7372,0,0,0,.6448.73.7537.7537,0,0,0,.8161-.5325,9.7471,9.7471,0,0,0,.3332-1.5859c.1043-.579.1937-1.159.2645-1.7433q.0975-.8033.1644-1.61A4.1992,4.1992,0,0,0,315.4827,443.7212Z" transform="translate(-86 -153)"/><path class="cls-32" d="M318.7651,449.8228a2.35,2.35,0,0,0-.7957-.1337,20.1876,20.1876,0,0,0,.5031-2.4175,14.2733,14.2733,0,0,0,.1366-1.8066c.0048-.5036.01-1.2586-.4026-1.62a.2892.2892,0,0,0-.3986,0,2.3808,2.3808,0,0,0-.4467,1.4783c-.0662.5782-.1275,1.153-.216,1.7287a19.9455,19.9455,0,0,1-.8307,3.3771c-.2122.6264.5187,1.0283,1.0256.7884a1.3539,1.3539,0,0,1,.65-.0225,1.9165,1.9165,0,0,1,.7221.3377,1.8846,1.8846,0,0,0,.85.4209.5426.5426,0,0,0,.5477-.5477A1.751,1.751,0,0,0,318.7651,449.8228Z" transform="translate(-86 -153)"/><path class="cls-32" d="M324.9581,449.8161a6.237,6.237,0,0,0-1.1231-1.2877c.3106-.4109.6263-.8195.9051-1.2509a6.3059,6.3059,0,0,0,.506-.8888,3.7928,3.7928,0,0,0,.1979-.486,1.68,1.68,0,0,0-.0055-.5194.2674.2674,0,0,0-.3974-.2282c-.0941.0462-.2267.0525-.3286.1131a1.8235,1.8235,0,0,0-.3683.3458c-.25.2683-.4627.5667-.6863.8574-.2855.372-.5681.7456-.8515,1.1188.0029-.3441.01-.6877.0042-1.0314a4.4986,4.4986,0,0,0-.24-1.8471c-.2148-.4467-.7921-.2425-.942.123a5.3209,5.3209,0,0,0-.1589,1.7241q-.0365.86-.1121,1.7182c-.0508.5714-.0961,1.1434-.16,1.7135q-.0405.36-.0879.7194a1.3194,1.3194,0,0,0-.0183.5321,2.08,2.08,0,0,0,.2352.449l.01-.0134a.5021.5021,0,0,0,.7873.1162,1.2606,1.2606,0,0,0,.4653-.8835c.0372-.306.0693-.6128.0981-.92.0181-.19.0234-.3811.0389-.5712a4.7717,4.7717,0,0,1,.9969,1.18c.3306.5632.4529,1.22.8012,1.7682.259.4078,1.0154.4,1.1158-.1458A3.4724,3.4724,0,0,0,324.9581,449.8161Z" transform="translate(-86 -153)"/><path class="cls-5" d="M131.6784,290.4659c-1.5679-1.0279-3.4745-.9713-5.28-1.1351q-.6405-.0577-1.2785-.1333c-.0591-.0069-.118-.0149-.1772-.0221a8.9223,8.9223,0,0,0-.289-2.0645q.4037-.1569.8075-.3133a26.1717,26.1717,0,0,0,2.8675-1.337c.3985-.2137.8068-.4459,1.1842-.6948.4251-.28.7851-.671,1.1895-.9861.4143-.323.0615-1.0387-.4226-1.0195-.4062.0161-.8139-.02-1.2155-.0033a10.4076,10.4076,0,0,0-1.3617.217,25.7741,25.7741,0,0,0-2.6058.6352c-.6082.1748-1.2075.3941-1.8056.6109-.121-.1556-.251-.3157-.4031-.5126a7.5431,7.5431,0,0,0-1.8247-1.9018c.0052-.0133.0083-.0276.0131-.0409.0433-.1157.09-.23.1342-.3448l.0123-.0283c.1043-.2327.22-.4593.327-.69.3886-.84.802-1.6307,1.2641-2.4324.2345-.4071.442-.8414.66-1.2585a2.104,2.104,0,0,0,.3246-1.0746l.0273-.0336a.4139.4139,0,0,0-.4991-.6471c-.03.0166-.0586.0337-.0878.05a1.9879,1.9879,0,0,0-1.2439.3269,7.2692,7.2692,0,0,0-1.36.9549,10.9142,10.9142,0,0,0-2.04,2.563c-.228.4114-.4275.8434-.6162,1.2792a8.73,8.73,0,0,0-2.166-.28c-.1024,0-.2006.0165-.302.02-.1022-.3282-.2188-.6547-.32-.9718-.1861-.5846-.3438-1.1917-.5823-1.7568-.2266-.5373-.4836-1.0651-.7374-1.59a11.2044,11.2044,0,0,0-.9-1.3621,1.1328,1.1328,0,0,0-2.1109.5718,12.8127,12.8127,0,0,0,.0593,1.9691c.0773.53.1268,1.083.2457,1.605s.301,1.0358.45,1.5489c.09.31.1753.6226.2687.9318-.1419.0726-.2875.1315-.4271.2125a8.5793,8.5793,0,0,0-1.7435,1.3569c-.2462-.1756-.4876-.3585-.74-.5263l-.9268-.6179a8.5,8.5,0,0,0-.9826-.5223l-1-.4921a2.343,2.343,0,0,0-.8914-.26.6445.6445,0,0,1-.0651-.0116c-.1-.033-.1985-.08-.295-.12a.8891.8891,0,0,0-1,.4071.93.93,0,0,0,.1385,1.0733c.0013.0016.0394.0439.0771.0891l.0135.0465a1.4545,1.4545,0,0,0,.4365.7313c.2153.2485.4406.4891.6608.7334s.4285.5028.6607.7335c.2471.2451.5309.46.7954.6858.3905.3331.789.6529,1.1895.9722a8.1209,8.1209,0,0,0-.5812,2.54c-.3911.0911-.7834.1776-1.1707.2809a12.83,12.83,0,0,0-2.3989.8238c-.3368.17-.6765.3615-.9988.5566a3.2511,3.2511,0,0,0-.8473.8027.626.626,0,0,0,.1251.9707,3.5043,3.5043,0,0,0,1.1488.4078c.387.04.7828.0638,1.1717.0818a6.8549,6.8549,0,0,0,1.1717-.0979c.4864-.0612.9816-.1048,1.4641-.1886.2444-.0425.4878-.0948.7313-.1445a6.9985,6.9985,0,0,0,.79,1.8326c.015.0254.0385.0453.054.0707-.412.43-.8211.8628-1.2472,1.2786-.0855.0832-.1715.1648-.249.2556q-.1141.1479-.2282.2956c-.13.166-.26.3324-.3912.4974a3.4557,3.4557,0,0,0-.6361,1.0089c-.0666.1861-.1234.3766-.1864.5641a1.1143,1.1143,0,0,0,.2885,1.0914,1.1706,1.1706,0,0,0,1.0914.2885,3.705,3.705,0,0,0,1.4248-.4978,10.1624,10.1624,0,0,0,1.3467-.9424c.4018-.3481.7795-.7242,1.1651-1.0918a6.5019,6.5019,0,0,0,1.9869,1.0625c.0582.0307.1194.05.1781.0792a11.4578,11.4578,0,0,0,.09,1.6731,4.0108,4.0108,0,0,0,.8705,2.4024.9649.9649,0,0,0,1.3418,0,4.1578,4.1578,0,0,0,1.0659-2.3124,9.0369,9.0369,0,0,0,.19-1.1357q.9857-.1318,1.9717-.2649a6.9625,6.9625,0,0,0,1.0154-.3344c.1335.2011.2466.415.39.6089a8.2459,8.2459,0,0,0,1.8555,1.8421,3.8847,3.8847,0,0,0,1.1223.6259,3,3,0,0,0,1.107.0713,1.8425,1.8425,0,0,0,.4766-.0279,1.0822,1.0822,0,0,0,.791-1.039,2.0907,2.0907,0,0,0-.0333-.284c-.0041-.0294-.02-.147-.05-.3756-.0252-.1236-.055-.249-.0855-.3715a3.2937,3.2937,0,0,0-.557-1.0628c-.0822-.1235-.1586-.2513-.2422-.3741q-.55-.7113-.1379-.1786c-.0452-.06-.09-.1206-.1349-.1812-.2616-.3582-.5026-.7238-.7765-1.0739.4132.5284.0664.08-.0174-.0376q-.1336-.186-.26-.3768c-.055-.0825-.1034-.169-.1564-.2528.0787-.11.1765-.2009.2466-.3194a6.5262,6.5262,0,0,0,1.2024-1.8933c.6743.067,1.3491.1305,2.0258.1683,1.83.1011,3.8333.2066,5.3783-.9344A.9.9,0,0,0,131.6784,290.4659Z" transform="translate(-86 -153)"/><path class="cls-5" d="M125.2321,299.163c.0066.0318.006.0643.0111.0962C125.2465,299.2813,125.2437,299.257,125.2321,299.163Z" transform="translate(-86 -153)"/><path class="cls-5" d="M387.6918,216.1181c-1.5678-1.0279-3.4744-.9714-5.28-1.1351q-.64-.0577-1.2783-.1334c-.0591-.0068-.118-.0149-.1773-.022a8.9285,8.9285,0,0,0-.2889-2.0646l.8075-.3133a26.197,26.197,0,0,0,2.8675-1.3369c.3985-.2137.8066-.446,1.1842-.6948.4251-.28.7851-.671,1.1894-.9861.4144-.3232.0616-1.0388-.4225-1.02-.4063.0159-.8141-.02-1.2157-.0034a10.4313,10.4313,0,0,0-1.3616.2171,25.7587,25.7587,0,0,0-2.6057.6351c-.6083.1747-1.2075.3942-1.8057.611-.121-.1556-.2511-.3157-.403-.5126a7.5415,7.5415,0,0,0-1.8247-1.9018c.0051-.0134.0082-.0276.0131-.041.0432-.1156.09-.2294.134-.3447l.0123-.0283c.1045-.2327.22-.4593.3272-.6905.3884-.84.8018-1.6306,1.2639-2.4323.2347-.4072.4422-.8414.66-1.2585a2.1045,2.1045,0,0,0,.3246-1.0746l.0273-.0338a.4139.4139,0,0,0-.4992-.647c-.0294.0165-.0584.0338-.0878.05a1.9881,1.9881,0,0,0-1.2437.327,7.2645,7.2645,0,0,0-1.36.9549,10.9055,10.9055,0,0,0-2.04,2.5629c-.2282.4115-.4275.8434-.6164,1.2793a8.7223,8.7223,0,0,0-2.1658-.28c-.1026,0-.2006.0165-.3021.02-.1022-.3282-.2189-.6547-.32-.9718-.1861-.5848-.3438-1.1918-.5822-1.7569-.2266-.5374-.4838-1.065-.7374-1.59a11.225,11.225,0,0,0-.9-1.3621,1.1329,1.1329,0,0,0-2.111.5718,12.8364,12.8364,0,0,0,.06,1.969c.0772.53.1266,1.0831.2456,1.6051s.3009,1.0358.45,1.5488c.09.31.1751.6226.2687.9317-.1421.0727-.2877.1317-.4273.2127a8.5748,8.5748,0,0,0-1.7433,1.3568c-.2464-.1755-.4876-.3584-.74-.5263l-.9268-.6178a8.5159,8.5159,0,0,0-.9826-.5223l-1-.4921a2.3451,2.3451,0,0,0-.8916-.26.6013.6013,0,0,1-.0651-.0116c-.1-.033-.1985-.08-.2949-.1195a.8894.8894,0,0,0-1,.4071.93.93,0,0,0,.1386,1.0732c.0013.0016.0394.0441.0771.0892l.0135.0466a1.4517,1.4517,0,0,0,.4365.7311c.2152.2487.4406.4892.6607.7335s.4285.5029.6608.7334c.247.2452.5308.46.7954.686.39.3331.789.6528,1.19.972a8.1237,8.1237,0,0,0-.5814,2.54c-.3909.0912-.7834.1777-1.1706.2809a12.8417,12.8417,0,0,0-2.3989.8238c-.3367.1694-.6766.3616-.9988.5567a3.2427,3.2427,0,0,0-.8472.8027.6258.6258,0,0,0,.125.9706,3.5005,3.5005,0,0,0,1.1488.4078c.3871.04.7828.0639,1.1716.0819a6.8673,6.8673,0,0,0,1.1719-.0979c.4863-.0612.9814-.1048,1.4641-.1887.2443-.0424.4876-.0948.7312-.1444a6.9979,6.9979,0,0,0,.79,1.8325c.015.0255.0386.0453.0541.0708-.4122.43-.8213.8627-1.2473,1.2784-.0855.0833-.1714.1649-.2489.2558q-.1143.1479-.2284.2955c-.13.166-.26.3323-.391.4973a3.4606,3.4606,0,0,0-.6363,1.0091c-.0665.1861-.1232.3766-.1864.5639a1.1141,1.1141,0,0,0,.2887,1.0914,1.17,1.17,0,0,0,1.0913.2887,3.7047,3.7047,0,0,0,1.4249-.498,10.156,10.156,0,0,0,1.3467-.9423c.4017-.348.78-.7242,1.1649-1.0917a6.51,6.51,0,0,0,1.987,1.0625c.0583.03.1193.05.1781.0792a11.4275,11.4275,0,0,0,.0906,1.6729,4.01,4.01,0,0,0,.87,2.4025.9651.9651,0,0,0,1.3419,0,4.158,4.158,0,0,0,1.0658-2.3124,8.9958,8.9958,0,0,0,.19-1.1356q.9858-.1321,1.9717-.2649a6.9546,6.9546,0,0,0,1.0154-.3344c.1335.201.2467.415.39.6088a8.2445,8.2445,0,0,0,1.8553,1.842,3.88,3.88,0,0,0,1.1225.626,2.9986,2.9986,0,0,0,1.1068.0712,1.8347,1.8347,0,0,0,.4768-.0277,1.0824,1.0824,0,0,0,.791-1.0392,2.1021,2.1021,0,0,0-.0334-.2838c-.0041-.0294-.02-.147-.05-.3756-.0252-.1237-.055-.249-.0856-.3716a3.2934,3.2934,0,0,0-.5569-1.0628c-.0823-.1235-.1588-.2512-.2424-.374q-.55-.7113-.1378-.1787-.0679-.09-.1349-.1813c-.2616-.358-.5025-.7236-.7764-1.0738.4131.5283.0664.08-.0176-.0375q-.1334-.1861-.26-.3769c-.0552-.0824-.1036-.1689-.1566-.2529.0788-.11.1767-.2008.2467-.3192a6.5279,6.5279,0,0,0,1.2025-1.8933c.6743.0669,1.3491.13,2.0256.1681,1.83.1013,3.8335.2068,5.3784-.9342A.9.9,0,0,0,387.6918,216.1181Z" transform="translate(-86 -153)"/><path class="cls-5" d="M381.2454,224.815c.0067.0319.006.0644.0112.0964C381.26,224.9334,381.257,224.909,381.2454,224.815Z" transform="translate(-86 -153)"/><path class="cls-5" d="M702.6377,278.92a7.922,7.922,0,0,0-2.7319,2.7525q-.2832.3649-.5759.7214c-.0271.0331-.0549.0656-.0822.0986a6.4018,6.4018,0,0,0-1.36-.6251q.0615-.3049.1233-.61a18.7327,18.7327,0,0,0,.3026-2.2518c.0252-.3237.0429-.66.0387-.9853-.0048-.3656-.1014-.7346-.1353-1.1012-.0349-.3757-.6043-.44-.78-.1395-.1477.2518-.3273.4846-.4729.7338a7.4967,7.4967,0,0,0-.3965.9074,18.5465,18.5465,0,0,0-.6254,1.8215c-.13.4357-.23.8829-.33,1.3287-.1409.0128-.2881.0294-.4662.045a5.4152,5.4152,0,0,0-1.8567.3664l-.02-.0237c-.0532-.0709-.104-.1433-.1564-.2147l-.0124-.0184c-.1-.1532-.1925-.3111-.2908-.4653-.3576-.56-.6754-1.1166-.981-1.7066-.1552-.3-.3375-.5934-.5054-.8864a1.51,1.51,0,0,0-.524-.6126l-.01-.03a.2972.2972,0,0,0-.5845.0512c-.0016.0242-.0023.0484-.0035.0727a1.4269,1.4269,0,0,0-.2842.8787,5.2171,5.2171,0,0,0,.05,1.1923,7.8373,7.8373,0,0,0,.7592,2.2265c.16.2972.3444.5852.5348.8682a6.27,6.27,0,0,0-1.0085,1.2012c-.04.0621-.0676.1276-.1048.19-.238-.0653-.4806-.1213-.7115-.1831-.4257-.114-.8539-.2539-1.2879-.3286-.4127-.0712-.8313-.12-1.2472-.17a8.0391,8.0391,0,0,0-1.1722.0162.8135.8135,0,0,0-.4721,1.4978,9.1994,9.1994,0,0,0,1.2136.7271c.35.1585.7039.3429,1.0657.4733s.7428.2193,1.1109.3279c.2226.0656.4443.1352.6674.1985-.0111.114-.0318.2248-.0369.3406a6.1635,6.1635,0,0,0,.1449,1.58c-.2016.0809-.4055.156-.6047.2434l-.7328.321a6.1345,6.1345,0,0,0-.6965.3918l-.6849.4141a1.6815,1.6815,0,0,0-.5027.4384.4491.4491,0,0,1-.0323.0348c-.0585.0476-.1255.0889-.1864.132a.6383.6383,0,0,0-.1414.7624.6675.6675,0,0,0,.7025.3322c.0015,0,.042-.0068.0839-.0121l.0333.01a1.0429,1.0429,0,0,0,.6113.0194c.2338-.0337.4664-.0769.6994-.1153s.47-.0643.7-.1154c.2437-.0544.4836-.1427.7227-.2152.3527-.107.7006-.2241,1.0488-.3425a5.83,5.83,0,0,0,1.3106,1.3355c-.0963.2718-.1961.5426-.2837.8168a9.2161,9.2161,0,0,0-.4313,1.77c-.028.2691-.0435.549-.05.8194a2.33,2.33,0,0,0,.1572.8234.4494.4494,0,0,0,.6352.3,2.5138,2.5138,0,0,0,.6917-.5366c.1743-.2185.3419-.4486.5035-.6768a4.9147,4.9147,0,0,0,.3947-.7464c.1514-.3178.317-.6341.4533-.9583.0689-.1642.1315-.3316.196-.4981a5.025,5.025,0,0,0,1.414.2322c.0212.0009.0424-.0056.0637-.0052.1.4157.2036.8308.29,1.25.0172.084.0332.1675.0581.25q.0455.1264.09.2525c.05.143.1.286.1493.4294a2.4845,2.4845,0,0,0,.3635.7755c.0868.1124.18.22.2688.3313a.8.8,0,0,0,.7718.2483.841.841,0,0,0,.5973-.5481,2.6568,2.6568,0,0,0,.2509-1.0545,7.2852,7.2852,0,0,0-.0479-1.1792c-.0548-.3779-.1359-.7519-.2088-1.1275a4.6676,4.6676,0,0,0,1.4122-.79c.0411-.0233.0768-.0526.1169-.0769a8.2063,8.2063,0,0,0,1.0466.5933,2.88,2.88,0,0,0,1.79.4046.6932.6932,0,0,0,.52-.8114,2.9864,2.9864,0,0,0-.9853-1.54,6.4953,6.4953,0,0,0-.613-.5547q.3019-.6471.6036-1.2949a4.9851,4.9851,0,0,0,.1912-.7434c.1733-.0028.3466.0116.5195,0a5.9225,5.9225,0,0,0,1.8325-.4082,2.7883,2.7883,0,0,0,.8134-.4361,2.1535,2.1535,0,0,0,.472-.6416,1.3244,1.3244,0,0,0,.1678-.2991.7772.7772,0,0,0-.3219-.8809,1.496,1.496,0,0,0-.1845-.09c-.0193-.0089-.0965-.0451-.2463-.1155-.0846-.0328-.1719-.0633-.2578-.0923a2.364,2.364,0,0,0-.8583-.075c-.1067.0018-.2134-.0014-.32.0016q-.6433.0569-.1615.0142-.0808.006-.1619.0112c-.3178.0194-.6322.0235-.95.0535.48-.0452.074-.0093-.0294-.004q-.1644.0085-.3288.0114c-.0711.0013-.1422-.0029-.2135-.0033-.0357-.09-.053-.1846-.0975-.2728a4.6862,4.6862,0,0,0-.6789-1.4606c.3018-.3818.6017-.7652.8865-1.16a5.7758,5.7758,0,0,0,1.5189-3.6139A.6462.6462,0,0,0,702.6377,278.92Z" transform="translate(-86 -153)"/><path class="cls-5" d="M705.3986,286.1873c.0219.0083.0413.0213.0626.0306C705.4758,286.2243,705.46,286.2166,705.3986,286.1873Z" transform="translate(-86 -153)"/><path class="cls-5" d="M597.043,438.5692a7.9221,7.9221,0,0,0-3.7915-.8152q-.46-.0416-.9181-.0958c-.0423-.0049-.0847-.0107-.1273-.0159a6.4051,6.4051,0,0,0-.2075-1.4825l.58-.225a18.752,18.752,0,0,0,2.0592-.96c.2862-.1534.5794-.32.8505-.4989.3052-.2013.5638-.4818.8542-.7082.2975-.232.0441-.746-.3035-.7321-.2917.0114-.5846-.0142-.873-.0023a7.4785,7.4785,0,0,0-.9778.1558,18.46,18.46,0,0,0-1.8711.4561c-.437.1255-.8673.283-1.2968.4387-.0869-.1116-.18-.2267-.29-.3681a5.4133,5.4133,0,0,0-1.31-1.3657c.0038-.01.0059-.02.01-.0294.0311-.083.0645-.1647.0963-.2475l.0089-.02c.0748-.1672.1581-.33.2348-.4959.2789-.6034.5759-1.171.9077-1.7468.1686-.2922.3175-.604.4737-.9037a1.5109,1.5109,0,0,0,.2332-.7716l.02-.0242a.2972.2972,0,0,0-.3585-.4646c-.0212.0118-.042.0242-.0631.0361a1.4283,1.4283,0,0,0-.8932.235,5.2157,5.2157,0,0,0-.9767.6856,7.8386,7.8386,0,0,0-1.4649,1.8405c-.1638.2955-.307.6057-.4426.9187a6.2677,6.2677,0,0,0-1.5554-.201c-.0736,0-.1441.0118-.217.0145-.0732-.2358-.1571-.47-.23-.6979-.1336-.42-.2469-.8559-.4181-1.2617-.1627-.3859-.3473-.7649-.5295-1.142a8.0654,8.0654,0,0,0-.6459-.9783.8137.8137,0,0,0-1.5161.4107,9.2035,9.2035,0,0,0,.0428,1.414c.0554.38.091.7778.1764,1.1527s.2161.7437.3233,1.1123c.0647.2227.1257.4469.1928.6691-.102.052-.2065.0944-.3066.1526a6.1541,6.1541,0,0,0-1.252.9743c-.1769-.126-.35-.2573-.5314-.3778l-.6655-.4437a6.1271,6.1271,0,0,0-.7056-.3752l-.7183-.3532a1.6856,1.6856,0,0,0-.64-.1869.37.37,0,0,1-.0467-.0083c-.0718-.0236-.1427-.0576-.2119-.0858a.639.639,0,0,0-.7183.2923.6681.6681,0,0,0,.1.7708c.001.0011.0283.0317.0554.064l.01.0335a1.0432,1.0432,0,0,0,.3135.525c.1546.1786.3165.3514.4745.5268s.3077.361.4744.5267c.1774.176.3813.33.5713.4925.28.2393.5667.4689.8542.6982a5.8291,5.8291,0,0,0-.4174,1.8241c-.2809.0655-.5627.1276-.8406.2017a9.2176,9.2176,0,0,0-1.7229.5917c-.2418.1217-.4857.26-.7171.4a2.3326,2.3326,0,0,0-.6085.5765.45.45,0,0,0,.09.6971,2.5161,2.5161,0,0,0,.825.2928c.278.0289.5622.0459.8414.0588a4.9257,4.9257,0,0,0,.8414-.07c.3493-.044.7049-.0752,1.0515-.1355.1754-.0305.35-.068.525-.1036a5.0228,5.0228,0,0,0,.5675,1.3158c.0107.0183.0276.0327.0387.051-.296.3085-.59.62-.8957.918-.0613.06-.1231.1183-.1788.1836q-.0819.1064-.1639.2123c-.0932.1192-.1866.2387-.2809.3571a2.485,2.485,0,0,0-.4568.7246c-.0478.1337-.0886.2706-.1339.405a.8.8,0,0,0,.2072.7837.84.84,0,0,0,.7837.2074,2.66,2.66,0,0,0,1.0233-.3576,7.2966,7.2966,0,0,0,.9671-.6766c.2885-.25.56-.52.8366-.7842a4.6655,4.6655,0,0,0,1.4269.763c.0418.022.0856.0363.1278.057a8.2367,8.2367,0,0,0,.0652,1.2014,2.8793,2.8793,0,0,0,.625,1.7252.693.693,0,0,0,.9636,0,2.9853,2.9853,0,0,0,.7654-1.6605,6.4628,6.4628,0,0,0,.1363-.8155q.708-.0949,1.4159-.19a5.0026,5.0026,0,0,0,.7293-.24c.0958.1444.1771.2981.28.4373a5.9268,5.9268,0,0,0,1.3325,1.3229,2.79,2.79,0,0,0,.8059.4494,2.1548,2.1548,0,0,0,.795.0512,1.3221,1.3221,0,0,0,.3422-.02.7773.7773,0,0,0,.5681-.7462,1.4917,1.4917,0,0,0-.0239-.2039c-.003-.0211-.0142-.1056-.0358-.27-.018-.0888-.0394-.1788-.0613-.2667a2.3667,2.3667,0,0,0-.4-.7632c-.0591-.0887-.1141-.18-.1741-.2687q-.395-.5108-.099-.1282-.0488-.0647-.0969-.13c-.1878-.2571-.3608-.52-.5575-.7711.2967.3794.0477.0572-.0127-.0271q-.0957-.1335-.1868-.2706c-.04-.0592-.0744-.1213-.1125-.1816.0567-.0787.1269-.1442.1771-.2292a4.6835,4.6835,0,0,0,.8636-1.36c.4842.048.9688.0937,1.4547.1207a5.7766,5.7766,0,0,0,3.8623-.6709A.6462.6462,0,0,0,597.043,438.5692Z" transform="translate(-86 -153)"/><path class="cls-5" d="M592.4137,444.8146c.0048.0229.0044.0463.0081.0692C592.4242,444.9,592.422,444.8821,592.4137,444.8146Z" transform="translate(-86 -153)"/></svg>