<svg id="Layer_1" data-name="Layer 1" xmlns="http://www.w3.org/2000/svg" width="603" height="622.5422" viewBox="0 0 603 622.5422"><defs><style>.cls-1{fill:#aedef8;opacity:0.6;isolation:isolate;}.cls-2{fill:#76b3cb;}.cls-3{fill:#3c454a;}.cls-4{fill:#454f56;}.cls-5{fill:#41b1e6;}.cls-6{fill:#c7d7e1;}.cls-7{fill:#31393c;}.cls-8{fill:#e8505b;}.cls-9{fill:#fff;}</style></defs><title>otp</title><path class="cls-1" d="M93.5862,584.7236c-27.1447,0-52.7265-.9128-69.9526-32.4771C9.0781,525.5729,4.323,493.0385,3.113,461.2114.4772,391.7334,47.948,345.3755,40.3451,275.9461c-7.5334-68.8192-15.6215-136.15,44.9063-167.476,65.3019-33.7985,53.93,34.134,149.0763,11.9459C293.1743,106.6933,262.74,42.2711,356.6384,8.3423,413.6019-12.2445,474.5973,3.0568,494.4417,79.18c19.69,75.544-5.5165,88.0027-10.468,125.8624-8.38,64.0433,14.8285,98.2293,35.1823,123.51,42.5053,52.7859,58.77,50.2647,63.7614,128.2029,4.0962,63.9248-21.8733,127.968-68.786,127.968Z" transform="translate(0 0.0001)"/><path class="cls-1" d="M93.5862,584.7236c-33.5081,0-91.2644-114.0209-93.4515-173.8307-2.8879-79.035,41.1926-127.7681,82.1906-173.2551a283.7161,283.7161,0,0,0,50.2665-77.7049c12.3736-28.355,17.7807-66.2792,33.089-92.1772C208.19-4.1543,259.4245,61.37,304.6977,81.0229c58.5786,25.4287,117.7989-36.7419,175.9325-16.07C539.315,85.82,561.1361,158.455,555.9344,232.49c-2.4271,34.4975-10.517,64.8482-15.3641,98.3511-5.59,38.6666,5.3567,66.0929,8.3782,102.9252,4.2023,51.1358-.9665,141.0545-54.9224,150.9576Z" transform="translate(0 0.0001)"/><path class="cls-2" d="M603,594.99c0,7.53-4.8021,13.6323-10.7306,13.6323H33.2064c-5.9235,0-10.7272-6.1024-10.7272-13.6323h0c0-7.5263,4.8037-13.6289,10.7272-13.6289h559.063C598.1979,581.3611,603,587.4637,603,594.99Z" transform="translate(0 0.0001)"/><path class="cls-3" d="M423.3382,260.56c-10.03,0-18.1563-7.3734-18.1563-16.468V203.609c0-9.0965,8.1263-16.47,18.1563-16.47h0c10.0229,0,18.1492,7.3734,18.1492,16.47v40.4834c0,9.0946-8.1263,16.468-18.1491,16.468Z" transform="translate(0 0.0001)"/><path class="cls-3" d="M423.3382,338.8234c-10.03,0-18.1563-7.3734-18.1563-16.468V281.87c0-9.0964,8.1263-16.47,18.1563-16.47h0c10.0229,0,18.1492,7.3734,18.1492,16.47v40.485c0,9.0946-8.1263,16.468-18.1491,16.468Z" transform="translate(0 0.0001)"/><path class="cls-3" d="M423.3382,558.2768c-10.03,0-18.1563-7.37-18.1563-16.4664v-40.485c0-9.0963,8.1263-16.47,18.1563-16.47h0c10.0229,0,18.1492,7.3734,18.1492,16.47V541.81c0,9.0964-8.1263,16.4665-18.1491,16.4665Z" transform="translate(0 0.0001)"/><path class="cls-4" d="M431.4173,590.2685a32.2762,32.2762,0,0,1-32.2753,32.2736H216.26A32.27,32.27,0,0,1,183.9918,590.27V166.8149A32.2711,32.2711,0,0,1,216.26,134.5431H399.142a32.277,32.277,0,0,1,32.2753,32.2718Z" transform="translate(0 0.0001)"/><rect class="cls-5" x="194.4774" y="170.1966" width="226.4527" height="392.1051"/><polygon class="cls-6" points="204.965 551.813 204.965 170.196 194.477 170.196 194.477 562.302 420.93 562.302 420.93 551.813 204.965 551.813"/><rect class="cls-7" x="277.8468" y="140.3136" width="59.707" height="11.5582"/><path class="cls-7" d="M351.7633,590.9538a19.7675,19.7675,0,0,1-19.7661,19.7679H283.4034a19.7694,19.7694,0,0,1-19.7645-19.7679h0a19.7668,19.7668,0,0,1,19.7645-19.7662h48.5938a19.7648,19.7648,0,0,1,19.7661,19.7635v.0027Z" transform="translate(0 0.0001)"/><path class="cls-8" d="M512.1072,326.5023H286.6633a8.8164,8.8164,0,0,0-8.8165,8.8165V405.25a8.8165,8.8165,0,0,0,8.8165,8.8165h16.7955c1.3527,7.3026,2.9358,16.5169,2.9358,16.5169l15.2016-16.5169h190.511a8.8165,8.8165,0,0,0,8.8166-8.8165V335.3188A8.8165,8.8165,0,0,0,512.1072,326.5023Z" transform="translate(0 0.0001)"/><path class="cls-9" d="M390.8555,359.3818c0,12.7578-7.7539,19.5215-17.2129,19.5215-9.7891,0-16.6631-7.5888-16.6631-18.8066,0-11.7686,7.3144-19.4678,17.2129-19.4678C384.3115,340.6289,390.8555,348.3828,390.8555,359.3818Zm-28.7617.6045c0,7.919,4.29,15.0127,11.8242,15.0127,7.5888,0,11.8779-6.9834,11.8779-15.3974,0-7.3692-3.85-15.0684-11.8232-15.0684C366.0537,344.5332,362.0938,351.8477,362.0938,359.9863Z" transform="translate(0 0.0001)"/><path class="cls-9" d="M402.7383,345.3037H391.4648v-4.07h27.4415v4.07H407.5771v32.9951h-4.8388Z" transform="translate(0 0.0001)"/><path class="cls-9" d="M423.0342,341.6738a55.4764,55.4764,0,0,1,9.1836-.7148c4.7295,0,8.1943,1.1,10.3935,3.0791a9.964,9.964,0,0,1,3.2442,7.7539,10.9092,10.9092,0,0,1-2.8594,7.9189c-2.5293,2.6954-6.6543,4.0694-11.3281,4.0694a16.5016,16.5016,0,0,1-3.85-.3291v14.8476h-4.7842Zm4.7842,17.8721a16.0151,16.0151,0,0,0,3.9589.3857c5.7745,0,9.294-2.8046,9.294-7.9189,0-4.8945-3.4639-7.26-8.7432-7.26a20.0245,20.0245,0,0,0-4.51.3858Z" transform="translate(0 0.0001)"/><path class="cls-9" d="M381.541,402.4492l-1.7207-2.98c-.7-1.1407-1.1406-1.8809-1.56-2.6612h-.04c-.38.78-.76,1.501-1.46,2.6807l-1.62,2.9609h-2.0009l4.1211-6.8213-3.961-6.6611h2.02l1.78,3.16c.5.88.88,1.56,1.24,2.28H378.4c.38-.8.72-1.42,1.22-2.28l1.8408-3.16h2l-4.1,6.5605,4.2,6.9219Z" transform="translate(0 0.0001)"/><path class="cls-9" d="M397.2012,402.4492l-1.7207-2.98c-.7-1.1407-1.1407-1.8809-1.5606-2.6612h-.04c-.38.78-.76,1.501-1.46,2.6807l-1.62,2.9609h-2.001l4.1211-6.8213-3.9609-6.6611h2.02l1.78,3.16c.5.88.88,1.56,1.24,2.28h.06c.38-.8.72-1.42,1.22-2.28l1.8408-3.16h2l-4.1006,6.5605,4.2,6.9219Z" transform="translate(0 0.0001)"/><path class="cls-9" d="M412.8613,402.4492l-1.7207-2.98c-.7-1.1407-1.1406-1.8809-1.56-2.6612h-.04c-.38.78-.76,1.501-1.46,2.6807l-1.62,2.9609h-2.001l4.1211-6.8213-3.961-6.6611h2.02l1.78,3.16c.5.88.88,1.56,1.24,2.28h.0605c.38-.8.72-1.42,1.22-2.28l1.8409-3.16h2l-4.1006,6.5605,4.2,6.9219Z" transform="translate(0 0.0001)"/><path class="cls-9" d="M428.5215,402.4492l-1.7207-2.98c-.7-1.1407-1.1406-1.8809-1.5606-2.6612h-.04c-.38.78-.76,1.501-1.46,2.6807l-1.62,2.9609h-2.001l4.1211-6.8213-3.9609-6.6611H422.3l1.78,3.16c.5.88.88,1.56,1.24,2.28h.0606c.38-.8.72-1.42,1.22-2.28l1.8408-3.16h2l-4.1006,6.5605,4.2,6.9219Z" transform="translate(0 0.0001)"/></svg>