<svg id="Layer_1" data-name="Layer 1" xmlns="http://www.w3.org/2000/svg" width="603" height="622.5422" viewBox="0 0 603 622.5422"><defs><style>.cls-1{fill:#aedef8;opacity:0.6;isolation:isolate;}.cls-2{fill:#76b3cb;}.cls-3{fill:#3c454a;}.cls-4{fill:#454f56;}.cls-5{fill:#41b1e6;}.cls-6{fill:#c7d7e1;}.cls-7{fill:#31393c;}.cls-8{fill:#fff;}.cls-9{fill:#263238;}.cls-10{fill:#e0e0e0;}.cls-11{fill:#eb996e;}.cls-12{fill:#ffbe9d;}.cls-13{fill:#455a64;}.cls-14,.cls-15{opacity:0.2;}</style></defs><title>phone-number2</title><path class="cls-1" d="M93.5862,584.7236c-27.1447,0-52.7265-.9128-69.9526-32.4771C9.0781,525.5729,4.323,493.0385,3.113,461.2114.4772,391.7334,47.948,345.3755,40.3451,275.9461c-7.5334-68.8192-15.6215-136.15,44.9063-167.476,65.3019-33.7985,53.93,34.134,149.0763,11.9459C293.1743,106.6933,262.74,42.2711,356.6384,8.3423,413.6019-12.2445,474.5973,3.0568,494.4417,79.18c19.69,75.544-5.5165,88.0027-10.468,125.8624-8.38,64.0433,14.8285,98.2293,35.1823,123.51,42.5053,52.7859,58.77,50.2647,63.7614,128.2029,4.0962,63.9248-21.8733,127.968-68.786,127.968Z" transform="translate(0 0.0001)"/><path class="cls-1" d="M93.5862,584.7236c-33.5081,0-91.2644-114.0209-93.4515-173.8307-2.8879-79.035,41.1926-127.7681,82.1906-173.2551a283.7161,283.7161,0,0,0,50.2665-77.7049c12.3736-28.355,17.7807-66.2792,33.089-92.1772C208.19-4.1543,259.4245,61.37,304.6977,81.0229c58.5786,25.4287,117.7989-36.7419,175.9325-16.07C539.315,85.82,561.1361,158.455,555.9344,232.49c-2.4271,34.4975-10.517,64.8482-15.3641,98.3511-5.59,38.6666,5.3567,66.0929,8.3782,102.9252,4.2023,51.1358-.9665,141.0545-54.9224,150.9576Z" transform="translate(0 0.0001)"/><path class="cls-2" d="M603,594.99c0,7.53-4.8021,13.6323-10.7306,13.6323H33.2064c-5.9235,0-10.7272-6.1024-10.7272-13.6323h0c0-7.5263,4.8037-13.6289,10.7272-13.6289h559.063C598.1979,581.3611,603,587.4637,603,594.99Z" transform="translate(0 0.0001)"/><path class="cls-3" d="M423.3382,260.56c-10.03,0-18.1563-7.3734-18.1563-16.468V203.609c0-9.0965,8.1263-16.47,18.1563-16.47h0c10.0229,0,18.1492,7.3734,18.1492,16.47v40.4834c0,9.0946-8.1263,16.468-18.1491,16.468Z" transform="translate(0 0.0001)"/><path class="cls-3" d="M423.3382,338.8234c-10.03,0-18.1563-7.3734-18.1563-16.468V281.87c0-9.0964,8.1263-16.47,18.1563-16.47h0c10.0229,0,18.1492,7.3734,18.1492,16.47v40.485c0,9.0946-8.1263,16.468-18.1491,16.468Z" transform="translate(0 0.0001)"/><path class="cls-3" d="M423.3382,558.2768c-10.03,0-18.1563-7.37-18.1563-16.4664v-40.485c0-9.0963,8.1263-16.47,18.1563-16.47h0c10.0229,0,18.1492,7.3734,18.1492,16.47V541.81c0,9.0964-8.1263,16.4665-18.1491,16.4665Z" transform="translate(0 0.0001)"/><path class="cls-4" d="M431.4173,590.2685a32.2762,32.2762,0,0,1-32.2753,32.2736H216.26A32.27,32.27,0,0,1,183.9918,590.27V166.8149A32.2711,32.2711,0,0,1,216.26,134.5431H399.142a32.277,32.277,0,0,1,32.2753,32.2718Z" transform="translate(0 0.0001)"/><rect class="cls-5" x="194.4774" y="170.1966" width="226.4527" height="392.1051"/><polygon class="cls-6" points="204.965 551.813 204.965 170.196 194.477 170.196 194.477 562.302 420.93 562.302 420.93 551.813 204.965 551.813"/><rect class="cls-7" x="277.8468" y="140.3136" width="59.707" height="11.5582"/><path class="cls-7" d="M351.7633,590.9538a19.7675,19.7675,0,0,1-19.7661,19.7679H283.4034a19.7694,19.7694,0,0,1-19.7645-19.7679h0a19.7668,19.7668,0,0,1,19.7645-19.7662h48.5938a19.7648,19.7648,0,0,1,19.7661,19.7635v.0027Z" transform="translate(0 0.0001)"/><path class="cls-8" d="M239.019,328.4937c4.1783,0,5.27,3.3173,5.27,7.664,0,4.4082-1.0918,7.7471-5.27,7.7471-4.1992,0-5.291-3.3389-5.291-7.7471C233.728,331.811,234.82,328.4937,239.019,328.4937Zm0,1.7421c-3.0024,0-3.4013,2.7715-3.4013,5.9219,0,3.2754.3989,6.0039,3.4013,6.0039,2.9815,0,3.38-2.7285,3.38-6.0039,0-3.15-.3985-5.9219-3.38-5.9219Z" transform="translate(0 0.0001)"/><path class="cls-8" d="M252.207,328.4937c4.1783,0,5.27,3.3173,5.27,7.664,0,4.4082-1.0918,7.7471-5.27,7.7471-4.1992,0-5.291-3.3389-5.291-7.7471C246.916,331.811,248.0078,328.4937,252.207,328.4937Zm0,1.7421c-3.0024,0-3.4013,2.7715-3.4013,5.9219,0,3.2754.3989,6.0039,3.4013,6.0039,2.9815,0,3.38-2.7285,3.38-6.0039,0-3.15-.3985-5.9219-3.38-5.9219Z" transform="translate(0 0.0001)"/><path class="cls-8" d="M265.395,328.4937c4.1782,0,5.27,3.3173,5.27,7.664,0,4.4082-1.0918,7.7471-5.27,7.7471-4.1992,0-5.291-3.3389-5.291-7.7471C260.104,331.811,261.1958,328.4937,265.395,328.4937Zm0,1.7421c-3.0024,0-3.4013,2.7715-3.4013,5.9219,0,3.2754.3989,6.0039,3.4013,6.0039,2.9815,0,3.38-2.7285,3.38-6.0039,0-3.15-.3985-5.9219-3.38-5.9219Z" transform="translate(0 0.0001)"/><path class="cls-8" d="M293.7236,328.4937c4.1787,0,5.2705,3.3173,5.2705,7.664,0,4.4082-1.0918,7.7471-5.2705,7.7471-4.1992,0-5.291-3.3389-5.291-7.7471C288.4326,331.811,289.5244,328.4937,293.7236,328.4937Zm0,1.7421c-3.0029,0-3.4013,2.7715-3.4013,5.9219,0,3.2754.3984,6.0039,3.4013,6.0039,2.9815,0,3.38-2.7285,3.38-6.0039,0-3.15-.3985-5.9219-3.38-5.9219Z" transform="translate(0 0.0001)"/><path class="cls-8" d="M306.9111,328.4937c4.1787,0,5.2705,3.3173,5.2705,7.664,0,4.4082-1.0918,7.7471-5.2705,7.7471-4.1992,0-5.291-3.3389-5.291-7.7471C301.62,331.811,302.7119,328.4937,306.9111,328.4937Zm0,1.7421c-3.0029,0-3.4013,2.7715-3.4013,5.9219,0,3.2754.3984,6.0039,3.4013,6.0039,2.9815,0,3.38-2.7285,3.38-6.0039,0-3.15-.3985-5.9219-3.38-5.9219Z" transform="translate(0 0.0001)"/><path class="cls-8" d="M314.7236,335.4019h8.378v1.6166h-8.378Z" transform="translate(0 0.0001)"/><path class="cls-8" d="M331.67,328.4937c4.1778,0,5.27,3.3173,5.27,7.664,0,4.4082-1.0918,7.7471-5.27,7.7471-4.1992,0-5.291-3.3389-5.291-7.7471C326.3789,331.811,327.4707,328.4937,331.67,328.4937Zm0,1.7421c-3.0019,0-3.4013,2.7715-3.4013,5.9219,0,3.2754.3994,6.0039,3.4013,6.0039,2.9815,0,3.3809-2.7285,3.3809-6.0039,0-3.15-.3995-5.9219-3.3809-5.9219Z" transform="translate(0 0.0001)"/><path class="cls-8" d="M344.8574,328.4937c4.1778,0,5.27,3.3173,5.27,7.664,0,4.4082-1.0918,7.7471-5.27,7.7471-4.1992,0-5.291-3.3389-5.291-7.7471C339.5664,331.811,340.6582,328.4937,344.8574,328.4937Zm0,1.7421c-3.0019,0-3.4013,2.7715-3.4013,5.9219,0,3.2754.3994,6.0039,3.4013,6.0039,2.9815,0,3.3809-2.7285,3.3809-6.0039,0-3.15-.3994-5.9219-3.3809-5.9219Z" transform="translate(0 0.0001)"/><path class="cls-8" d="M358.0449,328.4937c4.1778,0,5.27,3.3173,5.27,7.664,0,4.4082-1.0918,7.7471-5.27,7.7471-4.1992,0-5.291-3.3389-5.291-7.7471C352.7539,331.811,353.8457,328.4937,358.0449,328.4937Zm0,1.7421c-3.0019,0-3.4013,2.7715-3.4013,5.9219,0,3.2754.3994,6.0039,3.4013,6.0039,2.9815,0,3.3809-2.7285,3.3809-6.0039,0-3.15-.3994-5.9219-3.3809-5.9219Z" transform="translate(0 0.0001)"/><path class="cls-8" d="M365.8574,335.4019h8.377v1.6166h-8.377Z" transform="translate(0 0.0001)"/><path class="cls-8" d="M382.8037,328.4937c4.1787,0,5.2705,3.3173,5.2705,7.664,0,4.4082-1.0918,7.7471-5.2705,7.7471-4.1992,0-5.291-3.3389-5.291-7.7471C377.5127,331.811,378.6045,328.4937,382.8037,328.4937Zm0,1.7421c-3.0029,0-3.4014,2.7715-3.4014,5.9219,0,3.2754.3985,6.0039,3.4014,6.0039,2.9815,0,3.38-2.7285,3.38-6.0039,0-3.15-.3985-5.9219-3.38-5.9219Z" transform="translate(0 0.0001)"/><path class="cls-8" d="M395.9912,328.4937c4.1787,0,5.2705,3.3173,5.2705,7.664,0,4.4082-1.0918,7.7471-5.2705,7.7471-4.1992,0-5.291-3.3389-5.291-7.7471C390.7,331.811,391.792,328.4937,395.9912,328.4937Zm0,1.7421c-3.0029,0-3.4014,2.7715-3.4014,5.9219,0,3.2754.3985,6.0039,3.4014,6.0039,2.9815,0,3.38-2.7285,3.38-6.0039,0-3.15-.3985-5.9219-3.38-5.9219Z" transform="translate(0 0.0001)"/><path class="cls-9" d="M102.8208,328.5314c.3329-4.57-3.7426-10.8735-7.5206-14.4951s-6.1172-8.5367-4.1489-15.841c1.5218-5.6465,5.1027-5.2245,6.5165-8.5425,1.0471-2.4576.6065-5.2593.8228-7.9221.7427-9.1417,10.8009-16.3074,19.6838-14.0231a22.8642,22.8642,0,0,1,42.1741-4.39,17.5864,17.5864,0,0,1,25.6484,14.2735c5.0058-3.6165,12.6867-2.2229,16.6484,2.5146s4.2041,11.99,1.1975,17.3838-8.8392,8.9045-14.9432,9.8422a30.3647,30.3647,0,0,1-17.9416-3.26,58.0723,58.0723,0,0,1-14.7193-11.1187" transform="translate(0 0.0001)"/><ellipse class="cls-10" cx="143.4746" cy="509.1413" rx="107.6387" ry="105.1162"/><path class="cls-11" d="M251.5522,509.23l-11.9136-30.55-42.7,26.8272,38.0481,58.6718S250.4636,544.0756,251.5522,509.23Z" transform="translate(0 0.0001)"/><path class="cls-12" d="M133.6723,443.084h0A28.64,28.64,0,0,0,162.4352,416c.6313-12.6511,1.16-24.8333,1.16-24.8333s23.49-1.7027,25.6566-24.6652,2.4638-76.0686,2.4638-76.0686h0a81.4937,81.4937,0,0,0-81.821,3.5539l-2.2346,1.4349-2.7134,118.836A28.6433,28.6433,0,0,0,133.6723,443.084Z" transform="translate(0 0.0001)"/><path class="cls-9" d="M147.1514,325.757a3.3434,3.3434,0,0,1,2.1441,4.2332,3.3853,3.3853,0,0,1-4.271,2.1235,3.3431,3.3431,0,0,1-2.1438-4.2332A3.3843,3.3843,0,0,1,147.1514,325.757Z" transform="translate(0 0.0001)"/><path class="cls-9" d="M153.5874,326.951c-.3882.3772-2.5645-1.4981-5.7619-1.7027-3.1959-.2519-5.6187,1.2949-5.9481.8663-.1624-.1912.2436-.8882,1.3026-1.5919a7.9574,7.9574,0,0,1,9.3464.6674C153.4737,326.037,153.7743,326.7849,153.5874,326.951Z" transform="translate(0 0.0001)"/><path class="cls-9" d="M182.2073,325.757a3.3435,3.3435,0,0,1,2.1441,4.2332,3.3854,3.3854,0,0,1-4.271,2.1235,3.3435,3.3435,0,0,1-2.1439-4.2332A3.3845,3.3845,0,0,1,182.2073,325.757Z" transform="translate(0 0.0001)"/><path class="cls-9" d="M189.0734,327.0216c-.3881.3772-2.5648-1.4981-5.7619-1.7027-3.1958-.2516-5.6189,1.295-5.9481.8665-.1626-.1912.2434-.8884,1.3027-1.592a7.9579,7.9579,0,0,1,9.3463.6673C188.96,326.1076,189.26,326.8555,189.0734,327.0216Z" transform="translate(0 0.0001)"/><path class="cls-9" d="M164.9463,351.8517c-.0015-.25,2.0065-.4864,5.2544-.6684.8431-.0221,1.5142-.1571,1.6109-.5972a4.4812,4.4812,0,0,0-.4043-2.42c-.6507-2.16-1.31-4.3461-1.9995-6.6366-2.74-9.4466-4.5687-17.2138-4.0851-17.3515s3.0969,7.4064,5.837,16.853c.6425,2.3037,1.2559,4.5029,1.8621,6.6759a5.2583,5.2583,0,0,1,.1753,3.4785,2.1914,2.1914,0,0,1-1.5481,1.206,5.4286,5.4286,0,0,1-1.4406.07C166.9586,352.3159,164.9478,352.1011,164.9463,351.8517Z" transform="translate(0 0.0001)"/><path class="cls-11" d="M163.66,390.8379s-14.7547-.001-29.54-10.9563c0,0,5.7939,17.12,29.1065,16.9164Z" transform="translate(0 0.0001)"/><path class="cls-12" d="M107.0977,329.15a3.4882,3.4882,0,0,0-3.2833-3.5476c-4.33-.2034-11.45,1.3633-12.3468,13.2008-1.28,16.91,15.2318,13.007,15.2982,12.5243C106.8178,350.9491,107.0147,335.73,107.0977,329.15Z" transform="translate(0 0.0001)"/><path class="cls-11" d="M103.1316,344.6c-.0709-.06-.3131.184-.8325.375a3.009,3.009,0,0,1-2.2254-.1206c-1.7527-.7907-3.0561-3.7406-2.9074-6.7943a9.6781,9.6781,0,0,1,1.1507-4.1561,3.4356,3.4356,0,0,1,2.4072-2.0943,1.52,1.52,0,0,1,1.693.9389c.1927.49.0592.8195.1472.8548.0446.0462.3877-.2554.3036-.9645a1.8856,1.8856,0,0,0-.5915-1.11,2.2639,2.2639,0,0,0-1.6115-.5532,4.1854,4.1854,0,0,0-3.3035,2.39,9.9612,9.9612,0,0,0-1.3869,4.6363c-.149,3.4154,1.37,6.7358,3.7829,7.627a3.2171,3.2171,0,0,0,2.7525-.2447C103.07,345.0072,103.1888,344.6352,103.1316,344.6Z" transform="translate(0 0.0001)"/><path class="cls-9" d="M138.451,317.9443c.8427,1.0846,3.7844.5766,7.6039.4148,3.812-.3064,6.7955-.1612,7.49-1.34.7889-1.2273-2.9-4.0457-7.8169-3.6424C140.8,313.5768,137.5079,316.8232,138.451,317.9443Z" transform="translate(0 0.0001)"/><path class="cls-9" d="M175.6863,316.82c.4607,1.476,3.2617,1.9191,6.37,1.9,3.1084-.0627,5.8976-.5794,6.3231-2.067.4366-1.4456-2.3838-3.5218-6.39-3.4644C177.9848,313.2367,175.2149,315.3865,175.6863,316.82Z" transform="translate(0 0.0001)"/><path class="cls-9" d="M194.98,297.7043s-13.9341,6.7452-32.0681-2.306c-11.9-5.94-25.7709-8.8411-28.8288-6.4486s-3.7036,14.6539-15.4919,18.2337c0,0,.81,23.3944-8.5179,22.56s-3.4979-37.0682-3.4979-37.0682l22.8187-11.1438,24.9012-4.7044,23.4628,3.308,18.1544,4.9709Z" transform="translate(0 0.0001)"/><path class="cls-13" d="M38.8158,433.0779c24.383-25.0764,67.303-22.34,67.303-22.34l35.5748,25.4676,20.1739-23.4867s21.2009,2.3274,41.0667,12.7071l1.3683.4234-.0174.284c15.6048,8.4741,37.7025,28.798,58.7526,48.5216l-25.19,23.3772-27.8814,24.75a.7334.7334,0,0,1,.0475.495c-.2907,1.5,3.8769,35.5442,8.1439,61.4174-25.3925,24.2308-57.7578,34.6048-93.6931,28.3073-11.4044-1.9986-16.9241-4.7782-27.4859-7.5491a38.2457,38.2457,0,0,1-28.3237-33.7057h0c-1.9009-21.686-3.3483-48.5355-3.3483-48.5355" transform="translate(0 0.0001)"/><path class="cls-9" d="M184.1743,417.0927a27.0605,27.0605,0,0,1,1.5324,4.0015c.9126,2.6008,2.1533,6.3909,3.62,11.0953,2.9367,9.4073,6.6771,22.507,10.2126,37.1264,3.5278,14.6268,6.1784,27.9911,7.8585,37.7017.8421,4.8553,1.4677,8.7934,1.8424,11.5238a27.04,27.04,0,0,1,.4625,4.2593,27.0934,27.0934,0,0,1-.9592-4.1748c-.5722-2.9141-1.3293-6.7719-2.2458-11.44-1.9084-9.6561-4.6957-22.9652-8.217-37.5654-3.5293-14.5931-7.1227-27.7059-9.8315-37.1689-1.3151-4.5726-2.4019-8.3508-3.2227-11.2052A27.1336,27.1336,0,0,1,184.1743,417.0927Z" transform="translate(0 0.0001)"/><path class="cls-9" d="M207.0814,506.7351c-.2261-.2772,10.41-9.3172,23.7544-20.1885,13.3483-10.8753,24.3486-19.4638,24.5747-19.1863s-10.4086,9.315-23.7569,20.19C218.31,498.4219,207.3071,507.0121,207.0814,506.7351Z" transform="translate(0 0.0001)"/><path class="cls-14" d="M71.0025,467.4973,49.1766,539.2926l8.122,4.2235,8.0077-20.3054S73.5342,480.5569,71.0025,467.4973Z" transform="translate(0 0.0001)"/><g class="cls-15"><path d="M181.81,417.136c11.7638,6.2025-17.7207,21.127-31.0375,20.7249l9.67-25.5153S177.8622,415.0546,181.81,417.136Z" transform="translate(0 0.0001)"/></g><path class="cls-13" d="M102.61,412.3456V393.3338s37.134,9.5548,38.4812,31.7735c0,0,4.724-24.5592,23.8554-25.7368l2.7018,34.5459-22.2626,19.371H122.8189l-17.8742-15.4186L102.61,413.88" transform="translate(0 0.0001)"/><path class="cls-9" d="M149.4479,531.6786a24.7662,24.7662,0,0,1-.0646-4.0893c.0549-2.6267.1029-6.4282.1154-11.1226.0323-9.3884-.2619-22.3608-1.4392-36.6326-1.1943-14.2755-3.045-27.12-4.6263-36.3742-.793-4.4552-1.45-8.1441-1.9492-10.9506a24.7234,24.7234,0,0,1-.6107-4.043,24.6761,24.6761,0,0,1,1.1038,3.9383c.64,2.5526,1.4526,6.2733,2.3569,10.8914a341.7857,341.7857,0,0,1,5.0159,36.4309,341.7616,341.7616,0,0,1,1.0642,36.7527c-.13,4.7041-.3175,8.5084-.5273,11.1319A24.6778,24.6778,0,0,1,149.4479,531.6786Z" transform="translate(0 0.0001)"/><path class="cls-9" d="M139.3832,418.7126a4.5038,4.5038,0,0,0-2.203.2044c-1.4195.4583-2.6884,2.2244-3.7282,4.7467a107.4249,107.4249,0,0,0-7.063,20.5436l-.1967.8484-.7492-.4523c-2.22-1.34-4.4965-2.79-6.7858-4.3436a135.1863,135.1863,0,0,1-12.04-9.1479,15.1646,15.1646,0,0,1-4.0989-5.367,16.8988,16.8988,0,0,1-1.2519-5.7338,33.2056,33.2056,0,0,1,.8249-8.3157,12.3086,12.3086,0,0,1,.8141-2.942,15.6961,15.6961,0,0,1-.3175,3.0277,39.1375,39.1375,0,0,0-.4078,8.1693,16.4284,16.4284,0,0,0,1.3188,5.3566,14.2815,14.2815,0,0,0,3.9063,4.909c3.5106,2.9343,7.5886,5.9864,11.98,8.9724,2.27,1.5406,4.5234,2.987,6.7164,4.3324l-.9453.3959a93.9579,93.9579,0,0,1,7.5576-20.6106,15.6369,15.6369,0,0,1,1.9528-3.2008,4.9868,4.9868,0,0,1,2.37-1.6075C138.6136,418.0585,139.4426,418.6938,139.3832,418.7126Z" transform="translate(0 0.0001)"/><path class="cls-9" d="M164.9463,399.3705a13.4888,13.4888,0,0,1,.3491,2.9681c.16,2.1808.3583,4.8868.5932,8.0919.2785,3.41.692,7.4589,1.3895,11.92.27,2.2005,1.0463,4.5927.4455,7.2973-.768,2.6567-2.7679,4.6392-4.8844,6.24-2.9743,2.21-6.0831,3.8649-8.1707,6.2057l-.99,1.1092-.0975-1.4794a44.4678,44.4678,0,0,0-5.4849-18.5167c-2.36-4.2355-4.3078-6.4136-4.1534-6.5372a7.0556,7.0556,0,0,1,1.465,1.4678,36.2889,36.2889,0,0,1,3.3677,4.6745,42.4208,42.4208,0,0,1,6.0476,18.8263l-1.0866-.37c2.2714-2.58,5.4844-4.2891,8.3217-6.4128,2.0225-1.5068,3.8073-3.3751,4.4363-5.5214.5292-2.1792-.1265-4.5527-.3971-6.8077-.6382-4.5092-.96-8.6017-1.1228-12.035-.1624-3.4348-.1915-6.2139-.1833-8.1342A13.0508,13.0508,0,0,1,164.9463,399.3705Z" transform="translate(0 0.0001)"/><path class="cls-9" d="M284.4673,404.141c-1.51,1.7786-56.1774,74.8766-56.1774,74.8766l7.6958,4.3612L292.0845,411.21Z" transform="translate(0 0.0001)"/><path class="cls-12" d="M64.8545,461.9346s57.51,82.785,60.9752,84.4116c6.8259,3.2038,85.5042-64.7875,93.0071-71.2921,1.0332-1.3809,3.1683-4.2966,7.3587-10.095,0,0,6.2072-28.4056,12.8319-26.2235s-3.63,14.4344.6843,25.2264,24.0719-14.9493,24.8634-17.26l5.0952-6.6575s5.3429,15.1495,4.9809,21.4748c-1.1592,20.2651-20.3328,44.3664-20.3328,44.3664S168.213,612.55,109.2321,615.859c-16.9877.9533-47.1754-47.2478-67.3585-83.392a49.46,49.46,0,0,1,14.0943-64.0527Z" transform="translate(0 0.0001)"/><path class="cls-11" d="M264.9724,465.1215c-.19-.1179,1.651-3.3729,3.6857-7.499,2.0466-4.1223,3.5166-7.56,3.7259-7.4805.1927.07-.9635,3.6628-3.03,7.8249C267.3,462.133,265.1447,465.2326,264.9724,465.1215Z" transform="translate(0 0.0001)"/><path class="cls-13" d="M55.1188,421.534S-6.6092,443.48,39.2847,547.2849l71.2593-43.0084-10.1371-24.2736Z" transform="translate(0 0.0001)"/><path class="cls-9" d="M50.3893,423.33a21.4024,21.4024,0,0,1,7.4317.6251,30.2113,30.2113,0,0,1,8.095,3.4166A43.7969,43.7969,0,0,1,74.91,434.75c5.9909,6.2445,11.5812,14.9585,16.7667,25.0508,5.2223,10.0936,10.094,21.5877,15.0916,33.6667,1.4966,3.6178,2.9718,7.1842,4.3687,10.5615l.2215.5354-.5065.2762c-20.6169,11.24-38.5709,21.7635-51.2588,29.6406-6.3492,3.9306-11.406,7.1615-14.8768,9.4075-1.659,1.0652-2.9862,1.9174-3.9987,2.5673a8.56,8.56,0,0,1-1.433.8285,8.5349,8.5349,0,0,1,1.2965-1.0284c.8774-.6373,2.17-1.5851,3.8744-2.757,3.3927-2.3688,8.3828-5.7146,14.6788-9.7472,12.5817-8.08,30.482-18.7541,51.101-30.0392l-.2847.8109c-1.4-3.3771-2.8791-6.9435-4.3789-10.561-4.9953-12.0743-9.8218-23.5508-14.9568-33.6175-5.099-10.0677-10.5583-18.7414-16.3709-24.9665a44.0576,44.0576,0,0,0-8.7076-7.3906,30.8512,30.8512,0,0,0-7.8435-3.5459A44.846,44.846,0,0,0,50.3893,423.33Z" transform="translate(0 0.0001)"/><path class="cls-9" d="M169.7337,363.1927c.0276.1569-.7638.4844-2.1306.5425a11.0644,11.0644,0,0,1-9.1843-4.6278c-.7666-1.133-.9742-1.9638-.8317-2.0351.3265-.1975,1.9822,2.6351,5.4366,4.3247C166.4359,363.1673,169.6981,362.813,169.7337,363.1927Z" transform="translate(0 0.0001)"/><path class="cls-10" d="M103.1853,485.8439c.1586.32-16.2371,8.7508-36.6159,18.8272-20.3857,10.08-37.0348,17.9886-37.1935,17.6681S45.61,513.59,65.9955,503.51C86.3743,493.4338,103.0272,485.5234,103.1853,485.8439Z" transform="translate(0 0.0001)"/><path class="cls-10" d="M88.2422,457.6442c.1691.315-14.4255,8.4771-32.5938,18.228-18.1746,9.7546-33.04,17.404-33.2092,17.0889s14.4225-8.4753,32.597-18.23C73.2043,464.98,88.0731,457.3291,88.2422,457.6442Z" transform="translate(0 0.0001)"/><path class="cls-10" d="M73.8075,434.84c.0838.1631-2.7284,1.7753-7.3012,4.32l-17.8506,9.9583-17.76,10.1269c-4.5435,2.5968-7.3773,4.169-7.4735,4.0129-.0915-.148,2.5732-1.9964,7.0019-4.7977s10.63-6.54,17.5952-10.47c6.9643-3.9266,13.3709-7.3,18.0591-9.64S73.7282,434.6847,73.8075,434.84Z" transform="translate(0 0.0001)"/><path class="cls-10" d="M128.4117,429.4475c-.0331.1481-1.9467-.101-4.8021-1.2928a36.8647,36.8647,0,0,1-10.055-6.5446,68.9792,68.9792,0,0,1-8.1094-8.7809c-1.8795-2.4017-2.9395-3.9617-2.8054-4.0736.14-.1171,1.4536,1.2408,3.5031,3.4806a117.2573,117.2573,0,0,0,8.272,8.4062,46.0562,46.0562,0,0,0,9.58,6.6821C126.6672,428.6911,128.4671,429.25,128.4117,429.4475Z" transform="translate(0 0.0001)"/><path class="cls-10" d="M164.683,415.98c.3152.0915-1.19,4.1384-5.1644,7.4527-3.9438,3.3522-8.1877,4.1459-8.2243,3.82-.1253-.3708,3.7011-1.66,7.39-4.81C162.4158,419.3445,164.3388,415.7933,164.683,415.98Z" transform="translate(0 0.0001)"/><path class="cls-10" d="M229.3382,453.3978a5.7986,5.7986,0,0,1-1.3855.2593c-1.057.13-2.38.2932-3.9994.4926-3.4776.3847-8.5179.87-14.7545,1.3541-12.4713.9946-29.7271,1.9688-48.7993,2.664-19.08.6666-36.3627.925-48.8734.8221-6.2549-.0386-11.3166-.1629-14.8125-.2987-1.6294-.0835-2.96-.1516-4.0239-.2063a5.7752,5.7752,0,0,1-1.4-.16,5.7961,5.7961,0,0,1,1.4068-.101l4.0258-.0368c3.6758-.0281,8.6877-.0661,14.8017-.1129,12.4979-.1315,29.7632-.5343,48.8294-1.2007,19.0585-.6944,36.307-1.5234,48.7824-2.2833,6.102-.3894,11.1043-.7084,14.7728-.9426l4.0191-.25A5.8019,5.8019,0,0,1,229.3382,453.3978Z" transform="translate(0 0.0001)"/><path class="cls-10" d="M209.7023,482.882a25.2109,25.2109,0,0,1-4.0857.6435c-2.64.329-6.4673.7425-11.204,1.1674-9.4715.8725-22.5836,1.7743-37.0836,2.3644-14.5055.5816-27.6487.74-37.16.6345-4.7554-.0417-8.6032-.1452-11.2607-.26a25.2086,25.2086,0,0,1-4.1238-.312,25.3077,25.3077,0,0,1,4.13-.192c2.8791-.0388,6.6705-.09,11.252-.1516,9.5-.1286,22.6221-.4317,37.11-1.0125,14.4826-.5893,27.585-1.3455,37.0644-1.9835,4.5714-.3078,8.355-.5627,11.2281-.7564A25.2751,25.2751,0,0,1,209.7023,482.882Z" transform="translate(0 0.0001)"/><path class="cls-10" d="M165.133,519.25c.0159.1734-3.1305.6368-8.2411,1.162s-12.1859,1.0928-20.0148,1.4836c-7.8316.3884-14.93.5267-20.0667.511s-8.3135-.1641-8.3148-.3381c-.0015-.1835,3.1708-.3583,8.2964-.5774l20.0207-.8887c7.6225-.42,14.515-.8,20.0068-1.1032C161.9414,519.2082,165.1161,519.067,165.133,519.25Z" transform="translate(0 0.0001)"/><path class="cls-10" d="M108.1545,432.9531c-.0087.3707-7.6364.4526-17.0231.8467-9.3906.3774-16.9977.9214-17.037.5527-.04-.3419,7.5437-1.467,16.9838-1.8467C100.5143,432.11,108.1659,432.609,108.1545,432.9531Z" transform="translate(0 0.0001)"/><path class="cls-10" d="M213.05,431.61c-.0015.3578-9.8946.61-22.0947.564-12.204-.0463-22.093-.3735-22.0917-.7311s9.8926-.61,22.0967-.5639C203.16,430.9252,213.0513,431.2526,213.05,431.61Z" transform="translate(0 0.0001)"/><path class="cls-10" d="M216.8681,582.9111a10.1537,10.1537,0,0,1-2.2657,1.3012c-1.4906.7723-3.6989,1.786-6.4675,2.946a141.4829,141.4829,0,0,1-45.5463,10.4978c-2.9972.1691-5.4262.224-7.1043.1823a10.1256,10.1256,0,0,1-2.6061-.1783c-.0035-.2074,3.6974-.35,9.64-.9168a174.4448,174.4448,0,0,0,45.2811-10.4367C213.39,584.2153,216.78,582.7232,216.8681,582.9111Z" transform="translate(0 0.0001)"/></svg>