<svg xmlns="http://www.w3.org/2000/svg" width="603" height="622.5424" viewBox="0 0 603 622.5424"><defs><style>.cls-1{isolation:isolate;}.cls-2{fill:#aedef8;opacity:0.6;}.cls-3{fill:#76b3cb;}.cls-4{fill:#3c454a;}.cls-5{fill:#454f56;}.cls-6{fill:#41b1e6;}.cls-7{fill:#c7d7e1;mix-blend-mode:multiply;}.cls-8{fill:#31393c;}.cls-9{fill:#fff;}</style></defs><title>phone-number</title><g class="cls-1"><g id="Layer_1" data-name="Layer 1"><path class="cls-2" d="M192.5862,673.7651c-27.1447,0-52.7265-.9128-69.9526-32.4771-14.5555-26.6736-19.3106-59.208-20.5206-91.035-2.6358-69.478,44.835-115.8359,37.2321-185.2653-7.5334-68.8192-15.6215-136.15,44.9063-167.476,65.3019-33.7985,53.93,34.134,149.0763,11.9459,58.8466-13.7227,28.4123-78.1449,122.3107-112.0737,56.9635-20.5868,117.9589-5.2855,137.8033,70.8376,19.69,75.544-5.5165,88.0027-10.468,125.8624-8.38,64.0433,14.8285,98.2293,35.1823,123.51,42.5053,52.7859,58.77,50.2647,63.7614,128.2029,4.0962,63.9248-21.8733,127.968-68.786,127.968Z" transform="translate(-99 -89.0415)"/><path class="cls-2" d="M192.5862,673.7651c-33.5081,0-91.2644-114.0209-93.4515-173.8307-2.8879-79.035,41.1926-127.7681,82.1906-173.2551a283.7143,283.7143,0,0,0,50.2665-77.7049c12.3736-28.355,17.7807-66.2792,33.089-92.1772,42.5089-71.91,93.7437-6.3861,139.0169,13.2672,58.5786,25.4287,117.7989-36.7419,175.9325-16.07,58.6848,20.8667,80.5059,93.5021,75.3042,167.5368-2.4271,34.4975-10.517,64.8482-15.3641,98.3511-5.59,38.6666,5.3567,66.0929,8.3782,102.9252,4.2023,51.1358-.9665,141.0545-54.9224,150.9576Z" transform="translate(-99 -89.0415)"/><path class="cls-3" d="M702,684.0315c0,7.53-4.8021,13.6323-10.7306,13.6323H132.2064c-5.9235,0-10.7272-6.1024-10.7272-13.6323h0c0-7.5263,4.8037-13.6289,10.7272-13.6289h559.063c5.9285,0,10.7306,6.1026,10.7306,13.6289Z" transform="translate(-99 -89.0415)"/><path class="cls-4" d="M522.3382,349.6019c-10.03,0-18.1563-7.3734-18.1563-16.468V292.6505c0-9.0965,8.1263-16.47,18.1563-16.47h0c10.0229,0,18.1492,7.3734,18.1492,16.47v40.4834c0,9.0946-8.1263,16.468-18.1492,16.468Z" transform="translate(-99 -89.0415)"/><path class="cls-4" d="M522.3382,427.8649c-10.03,0-18.1563-7.3734-18.1563-16.468v-40.485c0-9.0964,8.1263-16.47,18.1563-16.47h0c10.0229,0,18.1492,7.3734,18.1492,16.47v40.485c0,9.0946-8.1263,16.468-18.1492,16.468Z" transform="translate(-99 -89.0415)"/><path class="cls-4" d="M522.3382,647.3183c-10.03,0-18.1563-7.37-18.1563-16.4664v-40.485c0-9.0964,8.1263-16.47,18.1563-16.47h0c10.0229,0,18.1492,7.3734,18.1492,16.47v40.485c0,9.0964-8.1263,16.4664-18.1492,16.4664Z" transform="translate(-99 -89.0415)"/><path class="cls-5" d="M530.4173,679.31a32.2762,32.2762,0,0,1-32.2753,32.2736H315.26A32.27,32.27,0,0,1,282.9918,679.31V255.8564A32.2712,32.2712,0,0,1,315.26,223.5846H498.142a32.277,32.277,0,0,1,32.2753,32.2718Z" transform="translate(-99 -89.0415)"/><rect class="cls-6" x="194.4774" y="170.1965" width="226.4527" height="392.1051"/><polygon class="cls-7" points="204.965 551.813 204.965 170.196 194.477 170.196 194.477 562.302 420.93 562.302 420.93 551.813 204.965 551.813"/><rect class="cls-8" x="277.8468" y="140.3135" width="59.707" height="11.5582"/><path class="cls-8" d="M450.7633,679.9953a19.7675,19.7675,0,0,1-19.7661,19.7679H382.4034a19.7694,19.7694,0,0,1-19.7645-19.7679h0a19.7668,19.7668,0,0,1,19.7645-19.7662h48.5938a19.7648,19.7648,0,0,1,19.7661,19.7662Z" transform="translate(-99 -89.0415)"/><path class="cls-9" d="M328.4224,436.8516c-2.6665-2.625-4.2622-6.8653-4.2622-11.59,0-4.7451,1.5957-9.1758,4.5771-11.9258h1.9946v.19a16.0587,16.0587,0,0,0-4.7241,11.7363,16.2737,16.2737,0,0,0,4.4092,11.4v.19Z" transform="translate(-99 -89.0415)"/><path class="cls-9" d="M338.019,417.5352c4.1783,0,5.27,3.3173,5.27,7.664,0,4.4082-1.0918,7.7471-5.27,7.7471-4.1992,0-5.291-3.3389-5.291-7.7471C332.728,420.8525,333.82,417.5352,338.019,417.5352Zm0,1.7421c-3.0024,0-3.4013,2.7715-3.4013,5.9219,0,3.2754.3989,6.0039,3.4013,6.0039,2.9815,0,3.38-2.7285,3.38-6.0039C341.3994,422.0488,341.0005,419.2773,338.019,419.2773Z" transform="translate(-99 -89.0415)"/><path class="cls-9" d="M351.207,417.5352c4.1783,0,5.27,3.3173,5.27,7.664,0,4.4082-1.0918,7.7471-5.27,7.7471-4.1992,0-5.291-3.3389-5.291-7.7471C345.916,420.8525,347.0078,417.5352,351.207,417.5352Zm0,1.7421c-3.0024,0-3.4013,2.7715-3.4013,5.9219,0,3.2754.3989,6.0039,3.4013,6.0039,2.9815,0,3.38-2.7285,3.38-6.0039C354.5874,422.0488,354.1885,419.2773,351.207,419.2773Z" transform="translate(-99 -89.0415)"/><path class="cls-9" d="M364.395,417.5352c4.1782,0,5.27,3.3173,5.27,7.664,0,4.4082-1.0918,7.7471-5.27,7.7471-4.1992,0-5.291-3.3389-5.291-7.7471C359.104,420.8525,360.1958,417.5352,364.395,417.5352Zm0,1.7421c-3.0024,0-3.4013,2.7715-3.4013,5.9219,0,3.2754.3989,6.0039,3.4013,6.0039,2.9815,0,3.38-2.7285,3.38-6.0039C367.7754,422.0488,367.3765,419.2773,364.395,419.2773Z" transform="translate(-99 -89.0415)"/><path class="cls-9" d="M371.998,436.8516v-.19a16.2737,16.2737,0,0,0,4.4092-11.4,16.0587,16.0587,0,0,0-4.7241-11.7363v-.19h1.9946c2.9815,2.75,4.5772,7.1807,4.5772,11.9258,0,4.7246-1.5957,8.9649-4.2622,11.59Z" transform="translate(-99 -89.0415)"/><path class="cls-9" d="M392.7236,417.5352c4.1787,0,5.2705,3.3173,5.2705,7.664,0,4.4082-1.0918,7.7471-5.2705,7.7471-4.1992,0-5.291-3.3389-5.291-7.7471C387.4326,420.8525,388.5244,417.5352,392.7236,417.5352Zm0,1.7421c-3.0029,0-3.4013,2.7715-3.4013,5.9219,0,3.2754.3984,6.0039,3.4013,6.0039,2.9815,0,3.38-2.7285,3.38-6.0039C396.1035,422.0488,395.7051,419.2773,392.7236,419.2773Z" transform="translate(-99 -89.0415)"/><path class="cls-9" d="M405.9111,417.5352c4.1787,0,5.2705,3.3173,5.2705,7.664,0,4.4082-1.0918,7.7471-5.2705,7.7471-4.1992,0-5.291-3.3389-5.291-7.7471C400.62,420.8525,401.7119,417.5352,405.9111,417.5352Zm0,1.7421c-3.0029,0-3.4013,2.7715-3.4013,5.9219,0,3.2754.3984,6.0039,3.4013,6.0039,2.9815,0,3.38-2.7285,3.38-6.0039C409.291,422.0488,408.8926,419.2773,405.9111,419.2773Z" transform="translate(-99 -89.0415)"/><path class="cls-9" d="M413.7236,424.4434h8.378V426.06h-8.378Z" transform="translate(-99 -89.0415)"/><path class="cls-9" d="M430.67,417.5352c4.1778,0,5.27,3.3173,5.27,7.664,0,4.4082-1.0918,7.7471-5.27,7.7471-4.1992,0-5.291-3.3389-5.291-7.7471C425.3789,420.8525,426.4707,417.5352,430.67,417.5352Zm0,1.7421c-3.0019,0-3.4013,2.7715-3.4013,5.9219,0,3.2754.3994,6.0039,3.4013,6.0039,2.9815,0,3.3809-2.7285,3.3809-6.0039C434.0508,422.0488,433.6514,419.2773,430.67,419.2773Z" transform="translate(-99 -89.0415)"/><path class="cls-9" d="M443.8574,417.5352c4.1778,0,5.27,3.3173,5.27,7.664,0,4.4082-1.0918,7.7471-5.27,7.7471-4.1992,0-5.291-3.3389-5.291-7.7471C438.5664,420.8525,439.6582,417.5352,443.8574,417.5352Zm0,1.7421c-3.0019,0-3.4013,2.7715-3.4013,5.9219,0,3.2754.3994,6.0039,3.4013,6.0039,2.9815,0,3.3809-2.7285,3.3809-6.0039C447.2383,422.0488,446.8389,419.2773,443.8574,419.2773Z" transform="translate(-99 -89.0415)"/><path class="cls-9" d="M457.0449,417.5352c4.1778,0,5.27,3.3173,5.27,7.664,0,4.4082-1.0918,7.7471-5.27,7.7471-4.1992,0-5.291-3.3389-5.291-7.7471C451.7539,420.8525,452.8457,417.5352,457.0449,417.5352Zm0,1.7421c-3.0019,0-3.4013,2.7715-3.4013,5.9219,0,3.2754.3994,6.0039,3.4013,6.0039,2.9815,0,3.3809-2.7285,3.3809-6.0039C460.4258,422.0488,460.0264,419.2773,457.0449,419.2773Z" transform="translate(-99 -89.0415)"/><path class="cls-9" d="M464.8574,424.4434h8.377V426.06h-8.377Z" transform="translate(-99 -89.0415)"/><path class="cls-9" d="M481.8037,417.5352c4.1787,0,5.2705,3.3173,5.2705,7.664,0,4.4082-1.0918,7.7471-5.2705,7.7471-4.1992,0-5.291-3.3389-5.291-7.7471C476.5127,420.8525,477.6045,417.5352,481.8037,417.5352Zm0,1.7421c-3.0029,0-3.4014,2.7715-3.4014,5.9219,0,3.2754.3985,6.0039,3.4014,6.0039,2.9815,0,3.38-2.7285,3.38-6.0039C485.1836,422.0488,484.7852,419.2773,481.8037,419.2773Z" transform="translate(-99 -89.0415)"/><path class="cls-9" d="M494.9912,417.5352c4.1787,0,5.2705,3.3173,5.2705,7.664,0,4.4082-1.0918,7.7471-5.2705,7.7471-4.1992,0-5.291-3.3389-5.291-7.7471C489.7,420.8525,490.792,417.5352,494.9912,417.5352Zm0,1.7421c-3.0029,0-3.4014,2.7715-3.4014,5.9219,0,3.2754.3985,6.0039,3.4014,6.0039,2.9815,0,3.38-2.7285,3.38-6.0039C498.3711,422.0488,497.9727,419.2773,494.9912,419.2773Z" transform="translate(-99 -89.0415)"/></g></g></svg>