<?xml version="1.0" encoding="iso-8859-1"?>
<!-- Generator: Adobe Illustrator 19.0.0, SVG Export Plug-In . SVG Version: 6.00 Build 0)  -->
<svg version="1.1" id="Capa_1" xmlns="http://www.w3.org/2000/svg" xmlns:xlink="http://www.w3.org/1999/xlink" x="0px" y="0px"
	 viewBox="0 0 512 512" style="enable-background:new 0 0 512 512;" xml:space="preserve">
<g>
	<g>
		<path d="M225,0H15C6.709,0,0,6.709,0,15v210c0,8.291,6.709,15,15,15h210c8.291,0,15-6.709,15-15V15C240,6.709,233.291,0,225,0z
			 M210,210H30V30h180V210z"/>
	</g>
</g>
<g>
	<g>
		<path d="M497,0H287c-8.291,0-15,6.709-15,15v210c0,8.291,6.709,15,15,15h210c8.291,0,15-6.709,15-15V15C512,6.709,505.291,0,497,0
			z M482,210H302V30h180V210z"/>
	</g>
</g>
<g>
	<g>
		<path d="M437,60h-90c-8.291,0-15,6.709-15,15v90c0,8.291,6.709,15,15,15h90c8.291,0,15-6.709,15-15V75
			C452,66.709,445.291,60,437,60z"/>
	</g>
</g>
<g>
	<g>
		<path d="M165,60H75c-8.291,0-15,6.709-15,15v90c0,8.291,6.709,15,15,15h90c8.291,0,15-6.709,15-15V75
			C180,66.709,173.291,60,165,60z"/>
	</g>
</g>
<g>
	<g>
		<path d="M165,332H75c-8.291,0-15,6.709-15,15v90c0,8.291,6.709,15,15,15h90c8.291,0,15-6.709,15-15v-90
			C180,338.709,173.291,332,165,332z"/>
	</g>
</g>
<g>
	<g>
		<path d="M225,272H15c-8.291,0-15,6.709-15,15v210c0,8.291,6.709,15,15,15h210c8.291,0,15-6.709,15-15V287
			C240,278.709,233.291,272,225,272z M210,482H30V302h180V482z"/>
	</g>
</g>
<g>
	<g>
		<path d="M497,362c-8.291,0-15,6.709-15,15v45h-75c-8.291,0-15,6.709-15,15v45h-90v-45c0-8.291-6.709-15-15-15
			c-8.291,0-15,6.709-15,15v60c0,8.291,6.709,15,15,15h120c8.291,0,15-6.709,15-15v-45h75c8.291,0,15-6.709,15-15v-60
			C512,368.709,505.291,362,497,362z"/>
	</g>
</g>
<g>
	<g>
		<path d="M377,272h-90c-8.291,0-15,6.709-15,15v90c0,8.291,6.709,15,15,15c8.291,0,15-6.709,15-15v-75h60v15
			c0,8.291,6.709,15,15,15c8.291,0,15-6.709,15-15v-30C392,278.709,385.291,272,377,272z"/>
	</g>
</g>
<g>
	<g>
		<path d="M497,272h-60c-8.291,0-15,6.709-15,15v75h-75c-8.291,0-15,6.709-15,15v60c0,8.291,6.709,15,15,15c8.291,0,15-6.709,15-15
			v-45h75c8.291,0,15-6.709,15-15v-75h45c8.291,0,15-6.709,15-15C512,278.709,505.291,272,497,272z"/>
	</g>
</g>
<g>
	<g>
		<path d="M497,482h-30c-8.291,0-15,6.709-15,15c0,8.291,6.709,15,15,15h30c8.291,0,15-6.709,15-15C512,488.709,505.291,482,497,482
			z"/>
	</g>
</g>
<g>
</g>
<g>
</g>
<g>
</g>
<g>
</g>
<g>
</g>
<g>
</g>
<g>
</g>
<g>
</g>
<g>
</g>
<g>
</g>
<g>
</g>
<g>
</g>
<g>
</g>
<g>
</g>
<g>
</g>
</svg>
